<svg id="レイヤー_1" data-name="レイヤー 1" xmlns="http://www.w3.org/2000/svg" viewBox="0 0 180 120"><defs><style>.cls-1{fill:#231815;}.cls-2{fill:none;}.cls-3{fill:#fdd000;}</style></defs><title>eesc_logo</title><path class="cls-1" d="M4.93,78.32v4.26H5l.69-.83c.11-.14.2-.21.29-.21s.28.14.34.18l1,.83c.11.1.18.15.18.26s-.18.19-.27.19H4.93v3.68c.39-.14,2.33-.83,2.76-1l0,.14a40.27,40.27,0,0,1-5.48,3.46c-.15.52-.28.62-.44.62s-.28-.16-.35-.29l-1-1.86a8,8,0,0,0,3-.55V83a11.83,11.83,0,0,0-2.06.12l-.29-.64c.7.07.87.07,2.35.1V78.32H3.1a10.05,10.05,0,0,0-2,.13L.8,77.8c.87.07,1.74.11,2.63.11H5l.63-.68C5.86,77,5.86,77,6,77a1.21,1.21,0,0,1,.37.21l.94.67a.36.36,0,0,1,.17.24c0,.19-.17.19-.28.19Zm8.84,8.83.81-.81c.17-.16.22-.25.33-.25a.75.75,0,0,1,.34.18l1.05.84a.4.4,0,0,1,.19.28c0,.16-.17.17-.28.17H12.49v3.17h2.16l.82-1c.15-.17.18-.21.28-.21a.59.59,0,0,1,.35.17l1.22,1a.36.36,0,0,1,.19.26c0,.15-.15.19-.28.19H7.08a9.69,9.69,0,0,0-2,.12l-.3-.64c1.13.08,2.43.1,2.63.1H11V87.56H9.93a11.39,11.39,0,0,0-2,.13l-.29-.64c1.13.1,2.44.1,2.64.1H11V84.33H9.17c0,.48,0,1.16-.92,1.16-.6,0-.63-.4-.63-.59s0-.9,0-1.06c0-1,0-2.92,0-4a9.58,9.58,0,0,0-.26-3.34l1.89.87h4.87l.58-.61c.05,0,.16-.17.24-.17s.16.05.33.17l1,.73a.28.28,0,0,1,.11.22c0,.23-.24.4-.57.64,0,.56,0,1.47,0,2.84,0,.47.09,2.61.09,3a.84.84,0,0,1-.2.62,1.22,1.22,0,0,1-.82.31c-.66,0-.64-.48-.63-.88H12.49v2.82Zm-4.6-9.33v2.79H11V77.82Zm0,3.2v2.89H11V81Zm5.13-.41V77.82H12.49v2.79Zm0,3.3V81H12.49v2.89Z"/><path class="cls-1" d="M35.54,90.35H21.19a11.18,11.18,0,0,0-2,.12l-.3-.64c.87.07,1.76.1,2.63.1h4.89V78.83H22.48a10.22,10.22,0,0,0-2,.12l-.29-.64c.87.07,1.76.1,2.63.1h8.85l.85-1.14c.06-.07.19-.23.3-.23s.18.06.35.18l1.5,1.16a.36.36,0,0,1,.19.26c0,.19-.17.19-.28.19H28v11.1h4.56l1.07-1.15c.19-.21.21-.23.3-.23a.7.7,0,0,1,.33.19l1.36,1.16c.11.1.18.16.18.26S35.64,90.35,35.54,90.35Z"/><path class="cls-1" d="M54,86.87H46.59v3c0,.88-.51,1.9-2.44,2.18C44,91,43.33,90.63,42,90V89.9c.33,0,1.79.1,2.26.1s.78-.07.78-.55V86.87H39.81a10.56,10.56,0,0,0-2,.12l-.29-.64c1.11.09,2.42.11,2.63.11h4.93a4.81,4.81,0,0,0-.34-2.22l1.52.43c.26-.27,1.33-1.43,1.43-1.59h-4.6a10.56,10.56,0,0,0-2,.12l-.29-.64c1.13.09,2.42.11,2.63.11h4.39l1-.7a.85.85,0,0,1,.28-.12.45.45,0,0,1,.35.19l1.11,1.06a.26.26,0,0,1,.1.21c0,.46-.43.5-1.6.43-.92.45-1.68.8-2.4,1.09.11.09.18.14.18.24s-.13.33-.3.52v.87h4.47l.94-.92c.19-.17.32-.31.39-.31s.09,0,.34.19l1.4,1c.06,0,.19.14.19.26S54.17,86.87,54,86.87Zm-1.13-5.36c-.18.12-.93.72-1.09.83-.32.19-.5.29-1,.62l-.11-.07a16,16,0,0,0,.66-2.28H40.57c0,1.71-1,3.15-2,3.15a.81.81,0,0,1-.87-.82c0-.5.2-.65,1-1.29a4.55,4.55,0,0,0,1.63-2.29h.09a4.37,4.37,0,0,1,.19.83h7a8.64,8.64,0,0,0,1.61-3.77,1.28,1.28,0,0,0,0-.26l2,.9c.13,0,.24.12.24.28,0,.31-.62.36-.74.38A18.65,18.65,0,0,1,48,80.19h3.36l.76-.6c.2-.16.24-.16.29-.16s.13,0,.35.21l1.15,1c.21.17.24.26.24.35C54.13,81.34,53.69,81.4,52.91,81.51ZM42.35,79.67c-.54,0-.72-.26-1-1a4.57,4.57,0,0,0-1.17-2l.08-.08c1.33.26,2.92,1.07,2.92,2.21A.77.77,0,0,1,42.35,79.67ZM46,79.5c-.65,0-.81-.48-1-1.18a4.72,4.72,0,0,0-1.15-1.85l.07-.07c1.65.28,3,1.32,3,2.22A.86.86,0,0,1,46,79.5Z"/><path class="cls-1" d="M63.33,83.41l.82-.78c.11-.1.22-.22.29-.22s.13,0,.34.19l1,.78c.15.12.18.15.18.27s-.14.18-.27.18H58.57a11.44,11.44,0,0,0-2,.12l-.29-.64c1.11.1,2.42.1,2.63.1H61a9.86,9.86,0,0,0,1.13-3.94l1.78.62c.13,0,.28.14.28.31s-.11.29-.58.45c-.27.33-1.44,1.75-2.24,2.56Zm-.27-4.62.72-.76c.2-.23.2-.23.29-.23s.15.06.32.2l1,.76c.11.08.19.15.19.27s-.15.18-.28.18H59.07a9.75,9.75,0,0,0-2,.12l-.29-.64c1.13.08,2.42.1,2.63.1h.81a5.32,5.32,0,0,0-.37-2.46l2.19.54c.14,0,.33.09.33.28s-.06.17-.63.45a10.87,10.87,0,0,0-.06,1.19Zm-.5,6.85.44-.48c.06,0,.24-.24.31-.24s.1,0,.32.17l.83.62c.24.18.26.21.26.3s0,.19-.48.55c0,.59.06,3.22.06,3.74a.89.89,0,0,1-.95.86c-.61,0-.59-.36-.55-.9H59.26a2.5,2.5,0,0,1,0,.37c0,.57-.5.84-1,.84s-.58-.41-.58-.64c0-.69.13-3.72.13-4.32a7.15,7.15,0,0,0-.2-1.73l1.95.86Zm-4.43-5.78c1.59.63,2.37,1.34,2.37,2.27a.81.81,0,0,1-.85.9c-.73,0-.82-.59-.87-.88a6,6,0,0,0-.71-2.22Zm1.11,6.2v3.79H62.8V86.06Zm10.85-8.51.49-.38c.13-.11.24-.21.29-.21a1,1,0,0,1,.3.19l1,.78a.38.38,0,0,1,.19.31c0,.19-.07.22-.7.55-.08.14-.19.3-1.19,1.68-.26.36-1.37,2-1.59,2.32A7.56,7.56,0,0,1,71.8,85a4.88,4.88,0,0,1,.91,2.74c0,2.23-2.49,2.68-3.19,2.82a2.62,2.62,0,0,0-1.48-2l.07-.14c1.26.11,1.39.13,1.82.13,1.11,0,1.22-.7,1.22-1.18a5.41,5.41,0,0,0-2.69-4.4A22.1,22.1,0,0,0,70,78H67.83c0,1,0,8.06,0,9.57,0,.57.06,3.08.06,3.58a.87.87,0,0,1-1,1c-.71,0-.71-.45-.71-.71,0-.48.06-1.24.08-1.73,0-1.18.09-2.2.09-7.61a40,40,0,0,0-.21-5.45l1.75,1Z"/><path class="cls-1" d="M16.38,105.59a4.2,4.2,0,0,1-.63-.09c-.47.17-2.45,1-2.86,1.14l-.11-.08a8,8,0,0,0,1-1.58H3.63c0,1.89-1,2.94-2.07,2.94a.84.84,0,0,1-.91-.79c0-.52.26-.66,1.13-1.18a3.79,3.79,0,0,0,1.5-2.27h.15a7.77,7.77,0,0,1,.18.89H8a5.13,5.13,0,0,0-.41-2.36l2.24.45c.17,0,.39.11.39.33s-.33.42-.67.56c0,.29,0,.6,0,1h4.24l1-.87a.33.33,0,0,1,.22-.1.39.39,0,0,1,.26.1l1.39,1.37a.46.46,0,0,1,.13.26C16.77,105.52,16.54,105.59,16.38,105.59Zm-.63,12.25c-3-.21-5.34-2.34-6.86-4.83H8.8c-.63,1.54-2.65,4.17-8,4.78v-.14c2.38-.78,5.38-2.15,6.34-4.64H3a13.54,13.54,0,0,0-2,.1l-.29-.62c1.13.09,2.42.1,2.63.1h4a11.23,11.23,0,0,0,.4-1.93H5.63a12.07,12.07,0,0,0-2,.1l-.31-.62c1.13.08,2.44.1,2.65.1H7.78a16.05,16.05,0,0,0,.11-1.95H5.47a9.69,9.69,0,0,0-2,.12l-.3-.64c1.13.08,2.43.1,2.63.1H7.89a9.27,9.27,0,0,0-.33-2.61l2.2.5c.13,0,.34.1.34.29s-.39.37-.58.4c0,.21,0,1,0,1.42h2.39l.68-.76c.19-.19.21-.21.3-.21a.67.67,0,0,1,.33.18l.93.74c.13.1.2.17.2.28s-.15.19-.28.19H9.45c0,.31,0,1.67-.06,1.95H11.3l.74-.74c.19-.19.22-.23.3-.23s.2.09.33.19l.89.73c.17.14.22.17.22.28s-.16.19-.29.19H9.36A9.45,9.45,0,0,1,9,112.59H14l.76-.81c.21-.21.21-.21.28-.21s.13,0,.35.18l1.12.81a.38.38,0,0,1,.18.26c0,.16-.17.19-.28.19H9.34c2.09,2.27,4.46,3,8.09,2.86v.1A2.44,2.44,0,0,0,15.75,117.84Z"/><path class="cls-1" d="M19.82,112.65a3.07,3.07,0,0,1,.55,1.85c0,.76-.3,1.59-1.05,1.59a.69.69,0,0,1-.75-.64c0-.35.13-.54.45-1a3.75,3.75,0,0,0,.7-1.81Zm5-1.53.52-.62s.21-.22.32-.22a.74.74,0,0,1,.35.15l.65.49c.22.17.26.2.26.29s-.28.45-.47.59c-.66,4-1.16,5.93-3.59,6a2.81,2.81,0,0,0-1.35-1.92l.05-.1,1.93.29c.43,0,.56-.22.7-.55a8.06,8.06,0,0,0,.52-1.63.72.72,0,0,1-.39.12c-.31,0-.35-.07-.63-.83a2.23,2.23,0,0,0-.5-.88l.06-.16a2.54,2.54,0,0,1,1.59.78c.08-.6.1-.78.15-1.33h-3.8c0,.35,0,.85-.85.85-.55,0-.55-.37-.55-.52,0-.4.05-2.08.07-2.42,0-1.44.06-3,.06-4a24.4,24.4,0,0,0-.13-2.87l1.53.88h3l.46-.69s.17-.24.32-.24.13,0,.33.19l.91.71c.09.07.19.14.19.26s-.17.19-.28.19H23.8V106h.33l.45-.59c.07-.09.18-.23.29-.23s.26.14.34.19l.64.59c.15.12.19.16.19.26s-.11.19-.28.19h-2v2.11h.39l.37-.5s.16-.22.29-.22a.73.73,0,0,1,.34.19l.59.5c.13.1.19.16.19.26s-.17.19-.3.19H23.8v2.21Zm-4.26,1.53c1.21.6,1.54,1.4,1.54,1.9a.79.79,0,0,1-.74.85.55.55,0,0,1-.59-.62,5.44,5.44,0,0,0-.26-2.08Zm.63-8.79V106h1.32v-2.11Zm0,2.52v2.11h1.32v-2.11Zm1.32,4.74v-2.21H21.22v2.21Zm-.43,1.41c1.13.45,1.67,1.24,1.67,1.74a.7.7,0,0,1-.7.68c-.6,0-.62-.4-.65-1.07a2.57,2.57,0,0,0-.41-1.23Zm6-5.73c.87.07,1.76.1,2.63.1h.67l.46-.66s.17-.22.3-.22a.57.57,0,0,1,.35.21l.52.64c.15.17.17.19.17.26s-.15.19-.28.19H31.34c0,.29,0,1.52,0,1.94H33l.53-.51a.86.86,0,0,1,.39-.2c.06,0,.11,0,.3.13l.67.47c.13.09.22.16.22.33s0,.24-.48.61c0,.27,0,2,0,2.11,0,.48-.51.72-.92.72s-.54-.19-.52-.64H31.41a6.77,6.77,0,0,0,5,3.86v.12a3.4,3.4,0,0,0-1.8,1.42,8.74,8.74,0,0,1-3.53-5.4h-.06a7.1,7.1,0,0,1-5.85,5.45l-.08-.1c2.34-1.25,4-3,4.5-5.35H28.41a.82.82,0,0,1-.91.87c-.55,0-.55-.33-.55-.5,0-.44.07-2.41.07-2.81a10.05,10.05,0,0,0-.07-1.43l1.59.85h1.33c0-.44,0-1.56,0-1.94a9.26,9.26,0,0,0-1.45.12Zm8.34-.24A2.45,2.45,0,0,0,35,107.92a7.91,7.91,0,0,1-4-4.29h-.07a13.87,13.87,0,0,1-5.28,4.45l-.07-.09c3.29-3.34,4.05-5.1,4.05-5.76l1.74.74a.42.42,0,0,1,.26.33c0,.21-.18.26-.27.3a8.47,8.47,0,0,0,5.09,2.83Zm-6.74,5.31a20.91,20.91,0,0,0,.16-2.2H28.41v2.2Zm3.5,0v-2.2H31.32a18.91,18.91,0,0,1-.19,2.2Z"/><path class="cls-1" d="M43,113.67c0,.59,0,2.23,0,2.4,0,.54,0,1.58-2.06,1.82-.14-.83-.25-1-1.7-1.92v-.1A15.23,15.23,0,0,0,41,116c.63,0,.69-.07.69-.38v-1.55a23,23,0,0,1-2.63.67c-.12.4-.15.55-.36.55s-.2-.1-.27-.22l-.91-1.59a25.5,25.5,0,0,0,4.15-.45,10.06,10.06,0,0,0-.21-1.94l1.23.41a5.05,5.05,0,0,0,.61-1.17H41.44A11.34,11.34,0,0,1,37,113l-.05-.07a18.17,18.17,0,0,0,3.24-2.61,9.19,9.19,0,0,0-1.43.12l-.29-.64c.7,0,1.11.09,2.14.1.71-.74,1.13-1.26,1.5-1.69H39.72a11.37,11.37,0,0,0-2,.12l-.3-.64c.88.07,1.76.1,2.64.1h1c0-.62,0-1.62,0-2.39a10.93,10.93,0,0,0-2.24.11l-.3-.64c.56.05,1,.08,2.54.1a8.17,8.17,0,0,0-.22-2.66l1.89.5c.15,0,.3.09.3.26s-.13.26-.62.52c0,.12,0,.93,0,1.38h.18l.43-.64a.41.41,0,0,1,.3-.22.49.49,0,0,1,.33.2l.55.63.08.07a6.77,6.77,0,0,0,.7-1.89l1.6,1c.11.07.14.12.14.22s-.07.18-.61.19a19.14,19.14,0,0,1-2.2,3.22h.35l.67-.67c.09-.11.22-.23.31-.23s.22.11.32.19l.66.68c.08.08.17.17.17.26s-.18.19-.28.19H43.56c-.43.48-.89,1-1.65,1.69h1.44l.95-.6a.58.58,0,0,1,.24-.12.26.26,0,0,1,.22.15l.82,1.16a.43.43,0,0,1,.11.28c0,.15-.19.15-.24.15a4.32,4.32,0,0,1-.5,0c-.28.1-1.6.6-1.89.73.26.08.37.12.37.26s-.06.15-.49.43v.52c2.56-.4,3.23-.52,4-.68v.11C46.06,112.68,44.13,113.3,43,113.67Zm-.57-8.27v2.4h0a21.3,21.3,0,0,0,1.65-2.4ZM52.5,117.77a7.2,7.2,0,0,1-3.39-3.41,9.88,9.88,0,0,1-5.35,3.18l-.06-.07a16.41,16.41,0,0,0,4.82-4.41,14.45,14.45,0,0,1-.94-4.93,11,11,0,0,1-1.93,2.2l-.07,0c1.35-2,2.81-6.46,2.59-8l2.07,1a.18.18,0,0,1,.11.18c0,.17-.07.2-.72.48a17.51,17.51,0,0,1-1.22,2.73H51.3l.76-.76c.13-.12.18-.2.3-.2a.83.83,0,0,1,.33.19l1.11.74A.43.43,0,0,1,54,107c0,.13-.1.17-.28.17h-2.3l.91.66a.42.42,0,0,1,.2.29c0,.1,0,.21-.7.33a16.44,16.44,0,0,1-2,4.9,6.88,6.88,0,0,0,4.62,2.9v.14C53.56,116.66,53.37,116.87,52.5,117.77Zm-4.33-10.59c-.08.16-.15.24-.28.47a12.82,12.82,0,0,0,1.24,4.41,11.44,11.44,0,0,0,1.22-4.88Z"/><path class="cls-1" d="M72,104.89H64.2A33.83,33.83,0,0,1,61.3,107c.87,0,5.5-.34,6.46-.41a7.48,7.48,0,0,0-1.48-.88l.07-.13c3.61.39,5.21,1.65,5.21,2.51a.89.89,0,0,1-.87.92c-.47,0-.67-.22-1.28-.9a9.34,9.34,0,0,0-1.28-1.25c-1.26.32-8.78,1.46-10.22,1.63-.06.17-.19.47-.43.47a.38.38,0,0,1-.37-.3l-.78-1.92a10.36,10.36,0,0,0,2.37.35c.67,0,1.39,0,2.06,0,.2-.33.94-1.85,1.11-2.17H58.29a11.2,11.2,0,0,0-2,.13l-.29-.64c1.13.1,2.42.1,2.63.1h4.8a5.23,5.23,0,0,0-.52-2.51l2.22.5c.15,0,.33.09.33.26s-.16.3-.48.56v1.19h4.43l.87-1c.11-.12.2-.24.31-.24s.26.12.36.19l1.18,1.06c.15.12.19.17.19.26S72.17,104.89,72,104.89ZM68.74,110c0,.69,0,2.15.06,3.11,0,.52.13,2.43.13,2.79a1.56,1.56,0,0,1-.43,1.26,3.49,3.49,0,0,1-2,.9c-.06-1-.91-1.47-1.63-1.87v-.12a15.83,15.83,0,0,0,1.72.07c.43,0,.61,0,.67-.12s0-1.59,0-1.83H61.24c0,.45.11,2.63.11,2.8a1.07,1.07,0,0,1-.09.57,1.2,1.2,0,0,1-1,.5c-.63,0-.71-.33-.67-.9.11-1.61.13-4.62.15-6.23a8.06,8.06,0,0,0-.28-2.52l1.93.86h5.72l.48-.52a.6.6,0,0,1,.37-.22c.1,0,.17.07.25.1l.85.54a.37.37,0,0,1,.2.31C69.26,109.74,68.93,109.91,68.74,110Zm-1.54-.31h-6v1.78h6Zm.06,2.2h-6v1.88H67.3Z"/><path class="cls-1" d="M89.93,118a15.42,15.42,0,0,1-6.84-3.13,15.82,15.82,0,0,1-8.26,2.87v-.14a20.53,20.53,0,0,0,7.3-3.63,10.21,10.21,0,0,1-2.63-4.62h-.71a12.23,12.23,0,0,0-2,.1l-.29-.62c1.13.09,2.42.1,2.63.1H82.2c0-.41,0-2.87,0-3.08H76.89a11.45,11.45,0,0,0-2,.11l-.32-.63c1.13.09,2.45.11,2.65.11h5a14,14,0,0,0-.15-2.08c0-.19-.32-1-.37-1.18l2.48.64c.17,0,.26.11.26.25s0,.17-.28.31-.24.14-.39.24v1.82H88l1-1c.17-.17.21-.22.28-.22s.13,0,.34.19l1.35,1a.38.38,0,0,1,.18.26c0,.16-.14.17-.27.17h-7.1v3.08h1.71l.77-.78a.38.38,0,0,1,.34-.17.44.44,0,0,1,.22.12L88,109.15a.23.23,0,0,1,.08.17c0,.16-.12.23-.3.32l-.67.27a13.39,13.39,0,0,1-3,4.1,12.73,12.73,0,0,0,6.76,2c.48,0,.81,0,1.15,0v.12A5.49,5.49,0,0,0,89.93,118Zm-10.08-8.65a8.66,8.66,0,0,0,3,3.91,12.14,12.14,0,0,0,2.54-3.91Z"/><path class="cls-1" d="M97.27,106l.39-.73c0-.07.13-.22.28-.22a.72.72,0,0,1,.33.19l1,.72a.39.39,0,0,1,.19.28c0,.16-.15.17-.28.17H97l0,2.77c.38-.14,2.13-.69,2.5-.79l0,.08A19.24,19.24,0,0,1,97,110.12c0,.52.14,5.5.14,5.62,0,.7,0,1.94-2,2.1-.09-.92-1.16-1.66-1.94-2l0-.1c.24,0,1.63.15,2,.15s.39-.07.39-1.26c0-.61,0-3.24,0-3.77-.34.17-.71.34-1.39.69-.11.24-.21.42-.45.42s-.22-.09-.28-.2l-.85-1.83a2,2,0,0,0,.5.07,11,11,0,0,0,2.47-.43c0-.5,0-2.11,0-3.19a11.76,11.76,0,0,0-2.17.12l-.31-.64a23.79,23.79,0,0,0,2.48.11,10,10,0,0,0-.52-3.91l2.24.59c.11,0,.28.13.28.29s-.09.26-.59.62V106Zm13,10c-.35.17-.85.4-1.63,1.75a17.29,17.29,0,0,1-4.44-2.15,10.56,10.56,0,0,1-5.58,2.1v-.11a15.27,15.27,0,0,0,4.71-2.82,5.67,5.67,0,0,1-1.24-2.44,12.27,12.27,0,0,1-4.49,4.23l0-.09a17.94,17.94,0,0,0,4-6.11h-1.28a10.56,10.56,0,0,0-2,.12l-.29-.64c1.13.09,2.42.1,2.63.1h1.09a10.41,10.41,0,0,0,.57-2h-.9a11.27,11.27,0,0,0-2,.12l-.32-.64c1.13.11,2.45.11,2.65.11h4.37l.61-.61c.13-.12.19-.21.3-.21a.78.78,0,0,1,.35.17l.87.61a.39.39,0,0,1,.19.28c0,.15-.15.17-.28.17h-4.21c-.15.48-.35,1.07-.68,2h3.91l.72-.88c.15-.17.2-.22.28-.22s.15,0,.35.19l1.13.88a.38.38,0,0,1,.18.26c0,.16-.16.19-.27.19h-6.47c-.18.47-.52,1.18-.7,1.56h3l.74-.69c.15-.14.21-.2.39-.2s.2.09.3.14l1,.64c.09.07.22.16.22.28,0,.28-.09.31-.89.57a17.14,17.14,0,0,1-1.83,2.08,10.62,10.62,0,0,0,5.09,1.14Zm-11-11.82c1.69-.17,6.35-1.38,7-2.23l1.36,1.16a.36.36,0,0,1,.11.22.2.2,0,0,1-.22.23,4.42,4.42,0,0,1-.49,0,23.86,23.86,0,0,1-4.44.78,10.29,10.29,0,0,1,1.63.91,1.34,1.34,0,0,1,.55,1,.69.69,0,0,1-.74.76c-.68,0-.81-.39-1-1a9.73,9.73,0,0,0-.68-1.7c-.43,0-1,.07-1.76.07-.58,0-1,0-1.3,0Zm.31.3c.58.19,2.38.91,2.38,2a.78.78,0,0,1-.82.8c-.61,0-.78-.58-1-1.2a5.52,5.52,0,0,0-.69-1.5Zm2.82,7.82a6.39,6.39,0,0,0,1.63,1.75,8.17,8.17,0,0,0,1.26-1.75Zm5.85-7.67a.28.28,0,0,1,.15.28c0,.28-.28.35-.57.38-.43.35-2.32,1.75-2.67,2.06l-.07-.1a15.94,15.94,0,0,0,1.68-3.48Z"/><path class="cls-1" d="M126.13,108.49a1.18,1.18,0,0,0-.71.32,16.42,16.42,0,0,1-3.31,2.31l-.13-.07a14.54,14.54,0,0,0,2.24-3.32c-.82.24-4.39,1.34-5.11,1.54-.08,1.49-.13,3.08-.13,3.67,0,1.11.35,1.59,2.26,1.59a14.32,14.32,0,0,0,2.85-.33,2,2,0,0,1,.48,0,3.94,3.94,0,0,1,1.52.37.51.51,0,0,1,.18.43c0,.74-1.11.86-3.16.86-4.89,0-5.36-.64-5.36-4.41,0-.85,0-1.38,0-1.75a22.09,22.09,0,0,0-2.91,1.11,1.28,1.28,0,0,1-.55.19c-.37,0-1.71-.78-1.71-1.83a2.1,2.1,0,0,1,.24-1c.6.86.84,1.22,1.6,1.22a15.88,15.88,0,0,0,3.35-.67c0-.26,0-.69,0-1.35a10.23,10.23,0,0,0-.21-2.59c-.26-.46-1.09-.63-1.5-.73a2.82,2.82,0,0,1,1.39-.54c.56,0,2.22.33,2.22.88,0,.14-.13.52-.18.78a16.52,16.52,0,0,0-.41,3.19c.7-.19,4.8-1.28,4.87-1.34l.67-.46a.34.34,0,0,1,.24-.11,4.94,4.94,0,0,1,1.69,1,.73.73,0,0,1,.39.58C127,108.34,126.85,108.36,126.13,108.49Z"/><path class="cls-1" d="M136.47,107.4c-.31,0-.55-.24-1.18-.83a9.75,9.75,0,0,0-3.09-2.11,8.72,8.72,0,0,1,.9,0c.63,0,4.1.24,4.1,2.16A.8.8,0,0,1,136.47,107.4Zm1.67,5.77c-.68.5-1.79,1.24-2.42,1.78-.12.09-.54.55-.65.6a.48.48,0,0,1-.26.07c-.67,0-2-1.57-2-2.42a3.74,3.74,0,0,1,.12-.81c.6.93,1.15,1.17,1.47,1.17.52,0,3.61-2.11,4.28-2.59a38.68,38.68,0,0,0,5.8-5.14l.07,0C144.27,107,142.42,110.05,138.14,113.17Z"/><path class="cls-1" d="M159.62,106.94c-.41.15-.42.15-1.17,1.4-3.07,5.07-4.83,6.09-6.26,6.92a12.11,12.11,0,0,1-3.61,1.42l0-.12a18.4,18.4,0,0,0,6.25-5.14,2,2,0,0,1-.67-.5c-1.31-1.46-1.41-1.56-2.24-2a10.29,10.29,0,0,1-3.17,2.21l0-.1c2-1.87,4.47-5.62,4.47-6.33s-.65-.78-1.11-.94a1.88,1.88,0,0,1,1-.29c1.05,0,2.26.81,2.26,1.25,0,.17-.06.2-.45.58a5.94,5.94,0,0,0-.48.59,13.53,13.53,0,0,0,3.26-.33,8.06,8.06,0,0,1,1-.48c.21,0,1.54,1.23,1.54,1.52S160.09,106.76,159.62,106.94Zm-4.68-.07c-.17,0-.36,0-1-.42-1,1.35-1.78,2.17-1.84,2.22.85,0,3.17.34,3.39,1.83a16.65,16.65,0,0,0,2.15-4A23.12,23.12,0,0,1,154.94,106.87Z"/><path class="cls-1" d="M177.75,110.83c-.3,0-.76,0-1.13,0s-4.87,0-5.19,0a32.65,32.65,0,0,0-4.76.27,2.39,2.39,0,0,1-.63.12c-.68,0-1.72-1.36-1.72-2.05a2.3,2.3,0,0,1,.3-1c.65,1.21,1.09,1.41,3.29,1.41,1.08,0,7.51,0,8.14-.22a2.38,2.38,0,0,1,.74-.17s2.2.15,2.2,1.07C179,110.48,178.64,110.83,177.75,110.83Z"/><path class="cls-1" d="M142.53,48.38c1,1.24,2.39-.62,1.32-2.08a3.67,3.67,0,0,0-3.07-1.17c-.33,0-.17.1,0,.29A33.16,33.16,0,0,1,142.53,48.38Z"/><path class="cls-1" d="M147,48c1,1.32,2.48-.45,1.38-2a4,4,0,0,0-3.2-1.44c-.35,0-.18.1,0,.31C146.35,46.4,146.3,47.13,147,48Z"/><path class="cls-1" d="M158.46,57.45A6.9,6.9,0,0,0,156,55.8a8.61,8.61,0,0,0-1.75,1.91l-5.4,0c0-.2,0-.37,0-.49a1.19,1.19,0,0,1,.69-1.19c.29-.18.34-.46-.07-.65l-.27-.1c1.76-1.11,2.53-1.43,3.54-1.4s1-.58.49-1.18l0,0A8.42,8.42,0,0,1,156.76,51c.9-.1,1-.65.5-1.31A5.84,5.84,0,0,0,155,48a8,8,0,0,0-1,1.16l-3,0c1.13-1.14,2.1-2.47,3.1-2.61.85-.13.85-.76.37-1.1a15.77,15.77,0,0,0-2.67-1.32c-.19.52-.71,2.34-1.84,5l-8.81.08a10.37,10.37,0,0,0-.22-1.36c-.08-.34-.22-.41-.3-.08-.49,2.21-1.82,2.42-2.58,3.49s.15,2.82,1.75,1.76a3.65,3.65,0,0,0,1.38-3.29l13.09-.11a25.07,25.07,0,0,1-1.42,2.63,6.28,6.28,0,0,0-1.78-1,7.13,7.13,0,0,0-1,1l-5.3,0a18.77,18.77,0,0,1-3.09-.39,1.7,1.7,0,0,0,.51,1.18,15.24,15.24,0,0,1,2.6-.27l5.5,0a23.23,23.23,0,0,1-1.74,2.3,16.73,16.73,0,0,0-2.08-.32c0,.37.19,1.81.25,2.91v.05l-6.88.06a18.89,18.89,0,0,1-3.09-.39,1.66,1.66,0,0,0,.52,1.18,15.24,15.24,0,0,1,2.6-.27l6.87-.06a20.89,20.89,0,0,1-.19,3.78c-.12.64-.43.84-2.11.68-.83-.08-1.66-.19-2.32-.29-.22,0-.27.1,0,.17,3.32,1,1,2.78,3.93,2.49,2.42-.24,3.11-1.28,3.16-2.94,0-.55-.11-2.58-.18-3.91l7.79-.06,1.59,0C158.67,58.17,158.84,57.85,158.46,57.45Z"/><polygon class="cls-2" points="158.67 65.61 136.63 65.61 138.29 43.74 157.02 43.74 158.67 65.61"/><path class="cls-1" d="M18.06,54.07c-.17.39-.38.91-.61,1.5a4.7,4.7,0,0,0-1.92-.37c-.36,0-.14.14.06.3a7,7,0,0,1,2,2.5c.79,1.39,2.52,0,1.36-1.42a3.31,3.31,0,0,0-.94-.75,3.86,3.86,0,0,1,2.32-1c.76-.08,1-.5.54-.88A6.91,6.91,0,0,0,18.8,52.7a3.84,3.84,0,0,0-.82.84l-12.82.11c0-.47.09-.95.12-1.43l11.3-.1c-.09.72.29,1,1.53.59a.68.68,0,0,0,.52-.79,9.5,9.5,0,0,1-.13-1.57c0-.32.41-.4.59-.5s.23-.4,0-.68A4.24,4.24,0,0,0,17.4,48a4,4,0,0,0-1.11,1.22l-2.11,0v-.17c0-.74.16-.72.33-.82s.45-.25.18-.48A1.89,1.89,0,0,0,14,47.4l6.17,0c.35,0,.5-.32.17-.68a6.26,6.26,0,0,0-2.21-1.51,6.46,6.46,0,0,0-1.54,1.69l-4.22,0A3.83,3.83,0,0,1,12.4,46c.1-.47,1.38-.52.78-1.11a5,5,0,0,0-3-.74,11,11,0,0,1,.21,2.75l-4.24,0a6.35,6.35,0,0,0-3-1.35c.51,7.45.31,13-3,18.37-.34.56,0,.39.07.28A15.76,15.76,0,0,0,5.09,54.18ZM7.88,47.45A18.08,18.08,0,0,1,8,49.29l-2.58,0c0-.38,0-.76,0-1.14,0-.22.09-.43.76-.7Zm8.78,2.29a14.31,14.31,0,0,1,0,1.86l-2.43,0c0-.56,0-1.2,0-1.86Zm-4.37,1.9-2.46,0c0-.56,0-1.2,0-1.87l2.54,0C12.32,50.4,12.31,51,12.29,51.64Zm0-4.22c.06.57.08,1.19.09,1.83l-2.54,0a1.48,1.48,0,0,0,0-.21c0-.74.15-.72.32-.82s.46-.25.19-.48a1.89,1.89,0,0,0-.6-.32ZM5.37,49.83l2.59,0c0,.62,0,1.25,0,1.86l-2.61,0C5.34,51.08,5.36,50.46,5.37,49.83Z"/><path class="cls-1" d="M7.51,55.39c-.72,1.44-1.7,1.38-2.41,2s-.35,2,1,1.55,1.62-2.8,1.62-3.44C7.7,55.24,7.62,55.17,7.51,55.39Z"/><path class="cls-1" d="M10.83,54.43c-.27,0-.12.16,0,.26.77.53.75.82,1.36,1.56s2-.22,1.15-1.17A3.47,3.47,0,0,0,10.83,54.43Z"/><path class="cls-1" d="M21.69,63a28.15,28.15,0,0,1-7.93-.62l.32-.21c1.09-.76,1.53-1.35,2.17-1.5.28-.06,1.17-.17.5-.75a6.63,6.63,0,0,0-2-1.16c-.07,0-.35.2-.9.73l-3.16,0a1.46,1.46,0,0,1,.7-.32c.46-.05.65-.23.14-.65l0,0a22.36,22.36,0,0,0,2.59-.18c1-.14,1.8-.49,1.81-1.18,0-.48-.43-.62-.66-.92a2.77,2.77,0,0,1-.4-1c-.05-.23-.12-.22-.15,0s0,1.54-1.07,1.76a9.2,9.2,0,0,1-2.53.13c-1-.08-1.06-.62-1.06-1,0-.53.1-.67.34-.75s.56-.32.07-.55a4.71,4.71,0,0,0-2.11-.46,11.13,11.13,0,0,1,.09,2.09c0,.62-.17,1.36.83,1.76l.11,0c-.83,1.21-2.11,2.79-6.49,5.07-.43.22-.27.26,0,.21a15.7,15.7,0,0,0,6.55-3.05,9.29,9.29,0,0,0,1.45,1.68,27.89,27.89,0,0,1-8.77,2.63c-.43.07-.39.21.07.22a24.16,24.16,0,0,0,10.06-1.85A16.11,16.11,0,0,0,17.8,65c1,.17,1.09.09,1.6-.42a7.35,7.35,0,0,1,2.33-1.41C21.84,63.07,21.86,63,21.69,63ZM9.78,60.24l.23-.18,3.93,0a16.78,16.78,0,0,1-2.15,1.64A7.17,7.17,0,0,1,9.78,60.24Z"/><polygon class="cls-2" points="22.04 65.61 0 65.61 1.65 43.74 20.39 43.74 22.04 65.61"/><path class="cls-1" d="M33.89,59.93c-.88,1.84-2.09,1.75-3,2.53s-.44,2.5,1.17,1.9c2-.75,2.05-3.49,2.05-4.3C34.13,59.75,34,59.66,33.89,59.93Z"/><path class="cls-1" d="M43.74,62a3.49,3.49,0,0,1-.47-1.41c-.07-.33-.14-.31-.18,0S43,62.72,41.68,63a10.74,10.74,0,0,1-3.19.19c-1.32-.09-1.28-.77-1.28-1.24,0-.7,0-1.11.43-1.26s.61-.47.09-.74a5.17,5.17,0,0,0-2.6-.59c0,.15,0,1.23,0,2.95,0,.81,0,1.69,1.09,2.15,1.45.6,4.52.5,6.14.18,1.3-.26,2.17-.57,2.24-1.48C44.61,62.61,44.05,62.35,43.74,62Z"/><path class="cls-1" d="M38.26,58.93c-.33,0-.14.2,0,.34.89.7.87,1.08,1.58,2,.82,1.14,2.37-.3,1.34-1.54A3.67,3.67,0,0,0,38.26,58.93Z"/><path class="cls-1" d="M48.18,61.68a5.67,5.67,0,0,0-4-1.72c-.42,0-.17.18.07.38a8.44,8.44,0,0,1,2.32,3.11C47.51,65.17,49.54,63.44,48.18,61.68Z"/><path class="cls-1" d="M35.69,57.55c0-1.23,0-2.35,0-3.23a13.55,13.55,0,0,0,2.46-2.09c0,1.51-.08,3.63-.25,5.38-.07.66,0,1.11.85,1,.61-.06.9-.32,1-.67l8.45-.07c.29,0,.41-.27.14-.57a5,5,0,0,0-1.81-1.27,5.07,5.07,0,0,0-1.21,1.34l-1.9,0c0-.61-.05-1.26-.07-1.9l3.21,0h0c.24,0,.34-.24.11-.5a4.23,4.23,0,0,0-1.48-1.09A4.52,4.52,0,0,0,44.21,55h-.92c0-.61,0-1.17,0-1.63l3.27,0h0c.24,0,.34-.23.11-.49a4,4,0,0,0-1.48-1.09,4.17,4.17,0,0,0-.95,1.07h-1c0-.13,0-.25,0-.34,0-.52.24-.6.52-.73s.33-.35,0-.59l3.79,0h0c.29,0,.42-.27.14-.57a5.07,5.07,0,0,0-1.8-1.27,5,5,0,0,0-1.22,1.34l-2.28,0c.21-.23.4-.43.73-.75s.71-.85,1.34-.94c.28,0,.37-.33,0-.55a5.58,5.58,0,0,0-1.86-.79,17.69,17.69,0,0,1-.88,3H40.39l-.13-.09a2.89,2.89,0,0,0-.51-.28l.57-.78a1.26,1.26,0,0,1,.83-.56c.26-.08.36-.33,0-.55a5.58,5.58,0,0,0-1.86-.79,10.09,10.09,0,0,1-.74,2A17.64,17.64,0,0,1,35.65,54V53a1,1,0,0,1,.63-1.11c.3-.18.49-.37,0-.65a3.55,3.55,0,0,0-.65-.32c.38-.4.74-.81,1.09-1.22a1.28,1.28,0,0,1,.87-.51c.27,0,.4-.31.1-.56a5.35,5.35,0,0,0-1.77-1,13,13,0,0,1-.94,2,21,21,0,0,1-2.22,3.09c.11-1.47.14-3,.16-4.54,0-.22.09-.43.75-.7l14-.12c.36,0,.51-.32.17-.68a6.13,6.13,0,0,0-2.2-1.51,6.62,6.62,0,0,0-1.55,1.69l-4.21,0a3.39,3.39,0,0,1,0-.88c.1-.47,1.39-.52.78-1.11a5,5,0,0,0-3-.74A12,12,0,0,1,38,46.91l-4.24,0a6.34,6.34,0,0,0-3-1.35c.52,7.45.32,13-3,18.37-.35.56-.05.39.07.28a16.09,16.09,0,0,0,4.94-10.72,15.25,15.25,0,0,0,1.33-1.05c0,1.48-.18,3.66-.41,5.51-.07.66,0,1.1.87,1S35.7,58.43,35.69,57.55Zm6-.13-2,0c0-.32,0-1.06,0-1.89l2.08,0C41.77,56.23,41.75,56.89,41.72,57.42ZM41.79,55l-2.1,0c0-.57,0-1.15,0-1.63l2.1,0C41.79,53.9,41.79,54.46,41.79,55Zm0-2.15h-2.1v-.51a1.14,1.14,0,0,1,.6-1.15h1.41C41.71,51.61,41.74,52.19,41.76,52.85Z"/><polygon class="cls-2" points="49.59 65.61 27.55 65.61 29.2 43.74 47.93 43.74 49.59 65.61"/><path class="cls-1" d="M69.31,54c-.3,0-.13.16,0,.27.82.56.8.87,1.45,1.66A.88.88,0,1,0,72,54.66,3.63,3.63,0,0,0,69.31,54Z"/><path class="cls-1" d="M61.43,44.58c.93.71.91,1.09,1.64,2.08.86,1.15,2.47-.3,1.39-1.56-.76-.9-2.35-.92-3.07-.86C61.05,44.27,61.24,44.44,61.43,44.58Z"/><path class="cls-1" d="M57.39,53.16a14.19,14.19,0,0,1,2.6-.27l15.23-.13h0c.35,0,.5-.32.17-.68a6.38,6.38,0,0,0-2.21-1.5,6.12,6.12,0,0,0-1.54,1.69l-4.76,0c0-.58,0-1.27-.05-2l5.34,0c.29,0,.41-.27.14-.57a5,5,0,0,0-1.81-1.27,5.07,5.07,0,0,0-1.21,1.34l-2.46,0v-.22c0-.7.16-.68.33-.78s.46-.25.19-.48a2.48,2.48,0,0,0-1-.43l7.43-.07c.36,0,.51-.32.17-.68a6.29,6.29,0,0,0-2.2-1.5,6.1,6.1,0,0,0-1.55,1.69l-2.94,0c1.45-1.11,2-1.53,2.51-1.53.76,0,.83-.36.43-.74A8.36,8.36,0,0,0,68,43.74s-1.09,2.47-1.56,3.62l-5.46,0A18.77,18.77,0,0,1,57.86,47a1.7,1.7,0,0,0,.51,1.18,15.24,15.24,0,0,1,2.6-.27l3.93,0c.07.6.09,1.25.1,1.92l-2.91,0A18.77,18.77,0,0,1,59,49.45a1.72,1.72,0,0,0,.51,1.19,14.19,14.19,0,0,1,2.6-.27l2.88,0c0,.66,0,1.33,0,2l-5,0A18.89,18.89,0,0,1,56.87,52,1.77,1.77,0,0,0,57.39,53.16Z"/><path class="cls-1" d="M75.5,62.78c0-.81.26-2.54.28-2.81s0-.3-.16,0a23,23,0,0,1-1.31,2.6c-.57.85-1.6.23-2.15-.06a4.77,4.77,0,0,1-1.37-1.14c.35-.32.69-.66,1-1a1.28,1.28,0,0,1,1.22-.42c.37,0,.6-.29.21-.69a7.56,7.56,0,0,0-1.85-1.34A14.53,14.53,0,0,1,69.88,60a13.12,13.12,0,0,1-1-2.41l6.65-.06c.36,0,.51-.32.17-.68a6,6,0,0,0-2.2-1.5A6.26,6.26,0,0,0,72,57l-3.21,0a8.82,8.82,0,0,1-.24-1.15c-.15-1.18,0-1.33.35-1.79.22-.3.14-.49-.31-.64a9.55,9.55,0,0,0-2.27-.39c.2,1.54.43,2.85.69,4l-3.74,0a1.17,1.17,0,0,1,.69-1.16c.28-.18.33-.45-.07-.64l-.09,0,.64-.16a1.32,1.32,0,0,1,1,.09c.27.12.5,0,.35-.39A6.55,6.55,0,0,0,64.66,53,9.77,9.77,0,0,1,62.9,54a18.84,18.84,0,0,1-5.66,1.45c-.42,0-.32.13,0,.2a13.64,13.64,0,0,0,4.28,0c0,.39,0,.89,0,1.44l-2.24,0a18.89,18.89,0,0,1-3.09-.39,1.71,1.71,0,0,0,.52,1.18,15.24,15.24,0,0,1,2.6-.27l2.21,0c0,.59,0,1.22,0,1.83-1,.11-2,.19-3,.23a12,12,0,0,1-2.3-.08,4.45,4.45,0,0,0,.88,2.07c.23.31.4.33.58.12s.23-.24.84-.4c1-.24,2-.48,3-.74,0,.59-.09,1.12-.16,1.54-.11.77-.72.76-1.37.7-.83-.09-1.23-.18-1.89-.28-.22,0-.23.07-.07.14,2.69,1.17,1.33,2.41,2.81,2.26,1.88-.19,2.44-1.14,2.45-2.52,0-.33,0-1.29,0-2.33a13.79,13.79,0,0,0,3.46-1.4c.28-.18,0-.11-.14-.09q-1.71.34-3.33.57c0-.62,0-1.21,0-1.63l3.87,0a14.39,14.39,0,0,0,1.47,3.78,15.85,15.85,0,0,1-5.17,3.12c-.5.2-.42.31,0,.23a14.52,14.52,0,0,0,5.93-2.22,9.9,9.9,0,0,0,2.31,2c1.6,1,3.52,1.4,4.19.33C76.37,64,75.5,63.59,75.5,62.78Z"/><polygon class="cls-2" points="77.13 65.61 55.09 65.61 56.75 43.74 75.48 43.74 77.13 65.61"/><path class="cls-1" d="M93.06,49.32c.26-.14.21-.33,0-.57a3.46,3.46,0,0,0-1.43-1,3.27,3.27,0,0,0-.9,1l-2.78,0a6.72,6.72,0,0,0-2.25-.93c0,.13.08.69.08,1.14a18.35,18.35,0,0,1-.15,2.26c-.07.55,0,.87.83.79.63-.06.88-.28,1-.68l3.51,0c-.06.6.26.82,1.3.49a.57.57,0,0,0,.45-.67,9.09,9.09,0,0,1-.11-1.35C92.56,49.48,92.91,49.41,93.06,49.32ZM91,50.76l-3.55,0c0-.41,0-.9,0-1.16s.1-.29.36-.37l3.2,0A11.1,11.1,0,0,1,91,50.76Z"/><path class="cls-1" d="M85.12,57c.16-.16.22-.2.78-.28l2.52-.37a9.31,9.31,0,0,1-.12,1.24c-.11.63-.61.63-1.16.57-.7-.07-1-.14-1.6-.23-.19,0-.2.07-.07.12,2,.77,1.32,1.9,2.57,1.78,1.59-.16,1.87-.86,1.88-2,0-.52,0-1.15,0-1.74a17.85,17.85,0,0,0,4.45-1.23c.34-.16,0-.11-.15-.1-1.45.17-2.81.29-4.08.35a1.63,1.63,0,0,1,.36-.26c.21-.13.27-.32,0-.46a4.7,4.7,0,0,1,2-.53c.63-.07.74-.45.4-.77A6.87,6.87,0,0,0,91.08,52a5.06,5.06,0,0,0-.73.77l-2.72,0a18.89,18.89,0,0,1-3.09-.39,1.69,1.69,0,0,0,.52,1.19,14.19,14.19,0,0,1,2.6-.27l2.83,0a8.78,8.78,0,0,1-.62.91,7.87,7.87,0,0,0-1.56-.26,8.49,8.49,0,0,1,.09.86c0,.15,0,.3,0,.45q-1.31,0-2.46,0a11.58,11.58,0,0,1-2-.22,4.19,4.19,0,0,0,.69,1.87C84.81,57.15,85,57.18,85.12,57Z"/><path class="cls-1" d="M103.79,57.33c0-.81,0-3.31,0-3.58s-.09-.25-.14,0a11.93,11.93,0,0,1-.81,3.13c-.47.78-1,.09-1.26-.27-.69-1.2-.74-3.3-.63-5.9,0-1,.2-1,.66-1.26.29-.14.31-.33,0-.68a4.09,4.09,0,0,0-1.71-1.09,5.71,5.71,0,0,0-.93.93h-.89c0-1,.06-2.71.09-2.88.09-.43,1.19-.47.64-1a4.72,4.72,0,0,0-2.73-.66,40.39,40.39,0,0,1,.17,4.53,20.38,20.38,0,0,1-2.56-.36,1.7,1.7,0,0,0,.51,1.18,13.53,13.53,0,0,1,2-.24c-.06,1-.13,2-.27,2.85a10,10,0,0,0-2.16-.34c-.41,0-.27.11,0,.28a13,13,0,0,1,1.87,1.26c-.64,2.5-2.08,4.39-5.53,6.23-.6.32-.41.39.14.24a18.26,18.26,0,0,0,2.28-.79c0,.48.06,1.14.07,1.84l-3.38,0a18.77,18.77,0,0,1-3.09-.39,1.7,1.7,0,0,0,.51,1.18,15.24,15.24,0,0,1,2.6-.27l3.37,0c0,1,0,1.89-.07,2.45l-5.84,0a18.89,18.89,0,0,1-3.09-.39,1.75,1.75,0,0,0,.52,1.18,14.76,14.76,0,0,1,2.6-.26l16.46-.15c.36,0,.51-.32.17-.68a6.11,6.11,0,0,0-2.2-1.5,6.26,6.26,0,0,0-1.55,1.69l-4.91,0c0-.81-.07-1.74-.07-2.45l6.35-.05c.35,0,.5-.32.17-.68A6.26,6.26,0,0,0,99,59a6.65,6.65,0,0,0-1.54,1.69l-2.76,0a4.69,4.69,0,0,1,0-.6c.1-.48,1.38-.53.78-1.12a3.63,3.63,0,0,0-1.78-.67,7.08,7.08,0,0,0,3.37-3.79l.06.06c1.23,1.34,2.75-.32,1.07-1.56a5.39,5.39,0,0,0-.62-.38c.2-1.09.3-2.27.41-3.53h1.33c-.19,3.79-.27,7.44,1.63,9.62.88,1,2.66,1.58,3,.48C104.33,58.34,103.79,58.14,103.79,57.33Z"/><path class="cls-1" d="M84.77,47.71a14.19,14.19,0,0,1,2.6-.27l7.12-.07c.29,0,.41-.27.14-.57a5.15,5.15,0,0,0-1.81-1.27,5.25,5.25,0,0,0-1.21,1.34l-1.41,0a4.07,4.07,0,0,1,0-1c.09-.43,1.26-.47.71-1a4.66,4.66,0,0,0-2.73-.67,11.07,11.07,0,0,1,.19,2.74H87.34a18.89,18.89,0,0,1-3.09-.39A1.8,1.8,0,0,0,84.77,47.71Z"/><polygon class="cls-2" points="104.68 65.61 82.64 65.61 84.29 43.74 103.03 43.74 104.68 65.61"/><polygon class="cls-2" points="131.68 65.61 109.64 65.61 111.29 43.74 130.02 43.74 131.68 65.61"/><path class="cls-1" d="M131.4,63.47a16.67,16.67,0,0,1-10.17-11.83l8.56-.07c.38,0,.53-.37.18-.79a6.64,6.64,0,0,0-2.33-1.73,8.31,8.31,0,0,0-1.67,2l-4.79,0c.08-1,.23-3.65.23-4.58,0-.49.42-.72.77-.85s.46-.42.17-.69c-.61-.57-2.63-.82-3.61-.86a28.71,28.71,0,0,1,.08,7l-4.93,0a18.77,18.77,0,0,1-3.09-.39,1.66,1.66,0,0,0,.52,1.18,14.68,14.68,0,0,1,2.59-.26l4.86-.05A16.53,16.53,0,0,1,110,65.13c-.65.37-.44.47.15.26,7.3-2.57,10-7.81,10.79-12.68.14,5,2.48,8.21,5.28,11,1.37,1.36,1.75,1.28,2.21,1a9.38,9.38,0,0,1,2.89-1.07C131.51,63.59,131.59,63.54,131.4,63.47Z"/><path class="cls-3" d="M34.77,11.47C34,8.84,35,4.25,36.32,1.63l-.57-.57L30.89,5.89a1.28,1.28,0,0,1-.21,1.52,1.31,1.31,0,0,1-1.82,0,1.27,1.27,0,0,1,1.53-2L35.26.57,34.68,0C32,1.32,27.42,2.3,24.76,1.54L18.7,8.48l8.39,9.6Z"/><path class="cls-3" d="M2.06,27.54a4,4,0,0,0-1,3.22A5,5,0,0,0,5.33,35,4.1,4.1,0,0,0,8.57,34l9-7.71L9.31,19.23Z"/><path class="cls-3" d="M11.56,1.54C8.9,2.3,4.28,1.32,1.64,0L1.06.57,5.93,5.4a1.27,1.27,0,0,1,1.53,2,1.3,1.3,0,0,1-1.81,0,1.25,1.25,0,0,1-.21-1.52L.57,1.06,0,1.63c1.33,2.62,2.31,7.21,1.55,9.84L27.75,34A4.11,4.11,0,0,0,31,35a5,5,0,0,0,4.22-4.19,4.05,4.05,0,0,0-.95-3.22Z"/></svg>