<svg id="レイヤー_1" data-name="レイヤー 1" xmlns="http://www.w3.org/2000/svg" viewBox="0 0 180 114"><defs><style>.cls-1,.cls-4{fill:#231815;}.cls-2{fill:none;}.cls-3{fill:#fdd000;}.cls-4{stroke:#000;stroke-miterlimit:10;stroke-width:0.25px;}</style></defs><title>アートボード 1</title><path class="cls-1" d="M142.53,48.38c1,1.24,2.39-.62,1.32-2.08a3.67,3.67,0,0,0-3.07-1.17c-.33,0-.17.1,0,.29A33.16,33.16,0,0,1,142.53,48.38Z"/><path class="cls-1" d="M147,48c1,1.32,2.48-.45,1.38-2a4,4,0,0,0-3.2-1.44c-.35,0-.18.1,0,.31C146.35,46.4,146.3,47.13,147,48Z"/><path class="cls-1" d="M158.46,57.45A6.9,6.9,0,0,0,156,55.8a8.61,8.61,0,0,0-1.75,1.91l-5.4,0c0-.2,0-.37,0-.49a1.19,1.19,0,0,1,.69-1.19c.29-.18.34-.46-.07-.65l-.27-.1c1.76-1.11,2.53-1.43,3.54-1.4s1-.58.49-1.18l0,0A8.42,8.42,0,0,1,156.76,51c.9-.1,1-.65.5-1.31A5.84,5.84,0,0,0,155,48a8,8,0,0,0-1,1.16l-3,0c1.13-1.14,2.1-2.47,3.1-2.61.85-.13.85-.76.37-1.1a15.77,15.77,0,0,0-2.67-1.32c-.19.52-.71,2.34-1.84,5l-8.81.08a10.37,10.37,0,0,0-.22-1.36c-.08-.34-.22-.41-.3-.08-.49,2.21-1.82,2.42-2.58,3.49s.15,2.82,1.75,1.76a3.65,3.65,0,0,0,1.38-3.29l13.09-.11a25.07,25.07,0,0,1-1.42,2.63,6.28,6.28,0,0,0-1.78-1,7.13,7.13,0,0,0-1,1l-5.3,0a18.77,18.77,0,0,1-3.09-.39,1.7,1.7,0,0,0,.51,1.18,15.24,15.24,0,0,1,2.6-.27l5.5,0a23.23,23.23,0,0,1-1.74,2.3,16.73,16.73,0,0,0-2.08-.32c0,.37.19,1.81.25,2.91v.05l-6.88.06a18.89,18.89,0,0,1-3.09-.39,1.66,1.66,0,0,0,.52,1.18,15.24,15.24,0,0,1,2.6-.27l6.87-.06a20.89,20.89,0,0,1-.19,3.78c-.12.64-.43.84-2.11.68-.83-.08-1.66-.19-2.32-.29-.22,0-.27.1,0,.17,3.32,1,1,2.78,3.93,2.49,2.42-.24,3.11-1.28,3.16-2.94,0-.55-.11-2.58-.18-3.91l7.79-.06,1.59,0C158.67,58.17,158.84,57.85,158.46,57.45Z"/><polygon class="cls-2" points="158.67 65.61 136.63 65.61 138.29 43.74 157.02 43.74 158.67 65.61"/><path class="cls-1" d="M18.06,54.07c-.17.39-.38.91-.61,1.5a4.7,4.7,0,0,0-1.92-.37c-.36,0-.14.14.06.3a7,7,0,0,1,2,2.5c.79,1.39,2.52,0,1.36-1.42a3.31,3.31,0,0,0-.94-.75,3.86,3.86,0,0,1,2.32-1c.76-.08,1-.5.54-.88A6.91,6.91,0,0,0,18.8,52.7a3.84,3.84,0,0,0-.82.84l-12.82.11c0-.47.09-.95.12-1.43l11.3-.1c-.09.72.29,1,1.53.59a.68.68,0,0,0,.52-.79,9.5,9.5,0,0,1-.13-1.57c0-.32.41-.4.59-.5s.23-.4,0-.68A4.24,4.24,0,0,0,17.4,48a4,4,0,0,0-1.11,1.22l-2.11,0v-.17c0-.74.16-.72.33-.82s.45-.25.18-.48A1.89,1.89,0,0,0,14,47.4l6.17,0c.35,0,.5-.32.17-.68a6.26,6.26,0,0,0-2.21-1.51,6.46,6.46,0,0,0-1.54,1.69l-4.22,0A3.83,3.83,0,0,1,12.4,46c.1-.47,1.38-.52.78-1.11a5,5,0,0,0-3-.74,11,11,0,0,1,.21,2.75l-4.24,0a6.35,6.35,0,0,0-3-1.35c.51,7.45.31,13-3,18.37-.34.56,0,.39.07.28A15.76,15.76,0,0,0,5.09,54.18ZM7.88,47.45A18.08,18.08,0,0,1,8,49.29l-2.58,0c0-.38,0-.76,0-1.14,0-.22.09-.43.76-.7Zm8.78,2.29a14.31,14.31,0,0,1,0,1.86l-2.43,0c0-.56,0-1.2,0-1.86Zm-4.37,1.9-2.46,0c0-.56,0-1.2,0-1.87l2.54,0C12.32,50.4,12.31,51,12.29,51.64Zm0-4.22c.06.57.08,1.19.09,1.83l-2.54,0a1.48,1.48,0,0,0,0-.21c0-.74.15-.72.32-.82s.46-.25.19-.48a1.89,1.89,0,0,0-.6-.32ZM5.37,49.83l2.59,0c0,.62,0,1.25,0,1.86l-2.61,0C5.34,51.08,5.36,50.46,5.37,49.83Z"/><path class="cls-1" d="M7.51,55.39c-.72,1.44-1.7,1.38-2.41,2s-.35,2,1,1.55,1.62-2.8,1.62-3.44C7.7,55.24,7.62,55.17,7.51,55.39Z"/><path class="cls-1" d="M10.83,54.43c-.27,0-.12.16,0,.26.77.53.75.82,1.36,1.56s2-.22,1.15-1.17A3.47,3.47,0,0,0,10.83,54.43Z"/><path class="cls-1" d="M21.69,63a28.15,28.15,0,0,1-7.93-.62l.32-.21c1.09-.76,1.53-1.35,2.17-1.5.28-.06,1.17-.17.5-.75a6.63,6.63,0,0,0-2-1.16c-.07,0-.35.2-.9.73l-3.16,0a1.46,1.46,0,0,1,.7-.32c.46-.05.65-.23.14-.65l0,0a22.36,22.36,0,0,0,2.59-.18c1-.14,1.8-.49,1.81-1.18,0-.48-.43-.62-.66-.92a2.77,2.77,0,0,1-.4-1c-.05-.23-.12-.22-.15,0s0,1.54-1.07,1.76a9.2,9.2,0,0,1-2.53.13c-1-.08-1.06-.62-1.06-1,0-.53.1-.67.34-.75s.56-.32.07-.55a4.71,4.71,0,0,0-2.11-.46,11.13,11.13,0,0,1,.09,2.09c0,.62-.17,1.36.83,1.76l.11,0c-.83,1.21-2.11,2.79-6.49,5.07-.43.22-.27.26,0,.21a15.7,15.7,0,0,0,6.55-3.05,9.29,9.29,0,0,0,1.45,1.68,27.89,27.89,0,0,1-8.77,2.63c-.43.07-.39.21.07.22a24.16,24.16,0,0,0,10.06-1.85A16.11,16.11,0,0,0,17.8,65c1,.17,1.09.09,1.6-.42a7.35,7.35,0,0,1,2.33-1.41C21.84,63.07,21.86,63,21.69,63ZM9.78,60.24l.23-.18,3.93,0a16.78,16.78,0,0,1-2.15,1.64A7.17,7.17,0,0,1,9.78,60.24Z"/><polygon class="cls-2" points="22.04 65.61 0 65.61 1.65 43.74 20.39 43.74 22.04 65.61"/><path class="cls-1" d="M33.89,59.93c-.88,1.84-2.09,1.75-3,2.53s-.44,2.5,1.17,1.9c2-.75,2.05-3.49,2.05-4.3C34.13,59.75,34,59.66,33.89,59.93Z"/><path class="cls-1" d="M43.74,62a3.49,3.49,0,0,1-.47-1.41c-.07-.33-.14-.31-.18,0S43,62.72,41.68,63a10.74,10.74,0,0,1-3.19.19c-1.32-.09-1.28-.77-1.28-1.24,0-.7,0-1.11.43-1.26s.61-.47.09-.74a5.17,5.17,0,0,0-2.6-.59c0,.15,0,1.23,0,2.95,0,.81,0,1.69,1.09,2.15,1.45.6,4.52.5,6.14.18,1.3-.26,2.17-.57,2.24-1.48C44.61,62.61,44.05,62.35,43.74,62Z"/><path class="cls-1" d="M38.26,58.93c-.33,0-.14.2,0,.34.89.7.87,1.08,1.58,2,.82,1.14,2.37-.3,1.34-1.54A3.67,3.67,0,0,0,38.26,58.93Z"/><path class="cls-1" d="M48.18,61.68a5.67,5.67,0,0,0-4-1.72c-.42,0-.17.18.07.38a8.44,8.44,0,0,1,2.32,3.11C47.51,65.17,49.54,63.44,48.18,61.68Z"/><path class="cls-1" d="M35.69,57.55c0-1.23,0-2.35,0-3.23a13.55,13.55,0,0,0,2.46-2.09c0,1.51-.08,3.63-.25,5.38-.07.66,0,1.11.85,1,.61-.06.9-.32,1-.67l8.45-.07c.29,0,.41-.27.14-.57a5,5,0,0,0-1.81-1.27,5.07,5.07,0,0,0-1.21,1.34l-1.9,0c0-.61-.05-1.26-.07-1.9l3.21,0h0c.24,0,.34-.24.11-.5a4.23,4.23,0,0,0-1.48-1.09A4.52,4.52,0,0,0,44.21,55h-.92c0-.61,0-1.17,0-1.63l3.27,0h0c.24,0,.34-.23.11-.49a4,4,0,0,0-1.48-1.09,4.17,4.17,0,0,0-.95,1.07h-1c0-.13,0-.25,0-.34,0-.52.24-.6.52-.73s.33-.35,0-.59l3.79,0h0c.29,0,.42-.27.14-.57a5.07,5.07,0,0,0-1.8-1.27,5,5,0,0,0-1.22,1.34l-2.28,0c.21-.23.4-.43.73-.75s.71-.85,1.34-.94c.28,0,.37-.33,0-.55a5.58,5.58,0,0,0-1.86-.79,17.69,17.69,0,0,1-.88,3H40.39l-.13-.09a2.89,2.89,0,0,0-.51-.28l.57-.78a1.26,1.26,0,0,1,.83-.56c.26-.08.36-.33,0-.55a5.58,5.58,0,0,0-1.86-.79,10.09,10.09,0,0,1-.74,2A17.64,17.64,0,0,1,35.65,54V53a1,1,0,0,1,.63-1.11c.3-.18.49-.37,0-.65a3.55,3.55,0,0,0-.65-.32c.38-.4.74-.81,1.09-1.22a1.28,1.28,0,0,1,.87-.51c.27,0,.4-.31.1-.56a5.35,5.35,0,0,0-1.77-1,13,13,0,0,1-.94,2,21,21,0,0,1-2.22,3.09c.11-1.47.14-3,.16-4.54,0-.22.09-.43.75-.7l14-.12c.36,0,.51-.32.17-.68a6.13,6.13,0,0,0-2.2-1.51,6.62,6.62,0,0,0-1.55,1.69l-4.21,0a3.39,3.39,0,0,1,0-.88c.1-.47,1.39-.52.78-1.11a5,5,0,0,0-3-.74A12,12,0,0,1,38,46.91l-4.24,0a6.34,6.34,0,0,0-3-1.35c.52,7.45.32,13-3,18.37-.35.56-.05.39.07.28a16.09,16.09,0,0,0,4.94-10.72,15.25,15.25,0,0,0,1.33-1.05c0,1.48-.18,3.66-.41,5.51-.07.66,0,1.1.87,1S35.7,58.43,35.69,57.55Zm6-.13-2,0c0-.32,0-1.06,0-1.89l2.08,0C41.77,56.23,41.75,56.89,41.72,57.42ZM41.79,55l-2.1,0c0-.57,0-1.15,0-1.63l2.1,0C41.79,53.9,41.79,54.46,41.79,55Zm0-2.15h-2.1v-.51a1.14,1.14,0,0,1,.6-1.15h1.41C41.71,51.61,41.74,52.19,41.76,52.85Z"/><polygon class="cls-2" points="49.59 65.61 27.55 65.61 29.2 43.74 47.93 43.74 49.59 65.61"/><path class="cls-1" d="M69.31,54c-.3,0-.13.16,0,.27.82.56.8.87,1.45,1.66A.88.88,0,1,0,72,54.66,3.63,3.63,0,0,0,69.31,54Z"/><path class="cls-1" d="M61.43,44.58c.93.71.91,1.09,1.64,2.08.86,1.15,2.47-.3,1.39-1.56-.76-.9-2.35-.92-3.07-.86C61.05,44.27,61.24,44.44,61.43,44.58Z"/><path class="cls-1" d="M57.39,53.16a14.19,14.19,0,0,1,2.6-.27l15.23-.13h0c.35,0,.5-.32.17-.68a6.38,6.38,0,0,0-2.21-1.5,6.12,6.12,0,0,0-1.54,1.69l-4.76,0c0-.58,0-1.27-.05-2l5.34,0c.29,0,.41-.27.14-.57a5,5,0,0,0-1.81-1.27,5.07,5.07,0,0,0-1.21,1.34l-2.46,0v-.22c0-.7.16-.68.33-.78s.46-.25.19-.48a2.48,2.48,0,0,0-1-.43l7.43-.07c.36,0,.51-.32.17-.68a6.29,6.29,0,0,0-2.2-1.5,6.1,6.1,0,0,0-1.55,1.69l-2.94,0c1.45-1.11,2-1.53,2.51-1.53.76,0,.83-.36.43-.74A8.36,8.36,0,0,0,68,43.74s-1.09,2.47-1.56,3.62l-5.46,0A18.77,18.77,0,0,1,57.86,47a1.7,1.7,0,0,0,.51,1.18,15.24,15.24,0,0,1,2.6-.27l3.93,0c.07.6.09,1.25.1,1.92l-2.91,0A18.77,18.77,0,0,1,59,49.45a1.72,1.72,0,0,0,.51,1.19,14.19,14.19,0,0,1,2.6-.27l2.88,0c0,.66,0,1.33,0,2l-5,0A18.89,18.89,0,0,1,56.87,52,1.77,1.77,0,0,0,57.39,53.16Z"/><path class="cls-1" d="M75.5,62.78c0-.81.26-2.54.28-2.81s0-.3-.16,0a23,23,0,0,1-1.31,2.6c-.57.85-1.6.23-2.15-.06a4.77,4.77,0,0,1-1.37-1.14c.35-.32.69-.66,1-1a1.28,1.28,0,0,1,1.22-.42c.37,0,.6-.29.21-.69a7.56,7.56,0,0,0-1.85-1.34A14.53,14.53,0,0,1,69.88,60a13.12,13.12,0,0,1-1-2.41l6.65-.06c.36,0,.51-.32.17-.68a6,6,0,0,0-2.2-1.5A6.26,6.26,0,0,0,72,57l-3.21,0a8.82,8.82,0,0,1-.24-1.15c-.15-1.18,0-1.33.35-1.79.22-.3.14-.49-.31-.64a9.55,9.55,0,0,0-2.27-.39c.2,1.54.43,2.85.69,4l-3.74,0a1.17,1.17,0,0,1,.69-1.16c.28-.18.33-.45-.07-.64l-.09,0,.64-.16a1.32,1.32,0,0,1,1,.09c.27.12.5,0,.35-.39A6.55,6.55,0,0,0,64.66,53,9.77,9.77,0,0,1,62.9,54a18.84,18.84,0,0,1-5.66,1.45c-.42,0-.32.13,0,.2a13.64,13.64,0,0,0,4.28,0c0,.39,0,.89,0,1.44l-2.24,0a18.89,18.89,0,0,1-3.09-.39,1.71,1.71,0,0,0,.52,1.18,15.24,15.24,0,0,1,2.6-.27l2.21,0c0,.59,0,1.22,0,1.83-1,.11-2,.19-3,.23a12,12,0,0,1-2.3-.08,4.45,4.45,0,0,0,.88,2.07c.23.31.4.33.58.12s.23-.24.84-.4c1-.24,2-.48,3-.74,0,.59-.09,1.12-.16,1.54-.11.77-.72.76-1.37.7-.83-.09-1.23-.18-1.89-.28-.22,0-.23.07-.07.14,2.69,1.17,1.33,2.41,2.81,2.26,1.88-.19,2.44-1.14,2.45-2.52,0-.33,0-1.29,0-2.33a13.79,13.79,0,0,0,3.46-1.4c.28-.18,0-.11-.14-.09q-1.71.34-3.33.57c0-.62,0-1.21,0-1.63l3.87,0a14.39,14.39,0,0,0,1.47,3.78,15.85,15.85,0,0,1-5.17,3.12c-.5.2-.42.31,0,.23a14.52,14.52,0,0,0,5.93-2.22,9.9,9.9,0,0,0,2.31,2c1.6,1,3.52,1.4,4.19.33C76.37,64,75.5,63.59,75.5,62.78Z"/><polygon class="cls-2" points="77.13 65.61 55.09 65.61 56.75 43.74 75.48 43.74 77.13 65.61"/><path class="cls-1" d="M93.06,49.32c.26-.14.21-.33,0-.57a3.46,3.46,0,0,0-1.43-1,3.27,3.27,0,0,0-.9,1l-2.78,0a6.72,6.72,0,0,0-2.25-.93c0,.13.08.69.08,1.14a18.35,18.35,0,0,1-.15,2.26c-.07.55,0,.87.83.79.63-.06.88-.28,1-.68l3.51,0c-.06.6.26.82,1.3.49a.57.57,0,0,0,.45-.67,9.09,9.09,0,0,1-.11-1.35C92.56,49.48,92.91,49.41,93.06,49.32ZM91,50.76l-3.55,0c0-.41,0-.9,0-1.16s.1-.29.36-.37l3.2,0A11.1,11.1,0,0,1,91,50.76Z"/><path class="cls-1" d="M85.12,57c.16-.16.22-.2.78-.28l2.52-.37a9.31,9.31,0,0,1-.12,1.24c-.11.63-.61.63-1.16.57-.7-.07-1-.14-1.6-.23-.19,0-.2.07-.07.12,2,.77,1.32,1.9,2.57,1.78,1.59-.16,1.87-.86,1.88-2,0-.52,0-1.15,0-1.74a17.85,17.85,0,0,0,4.45-1.23c.34-.16,0-.11-.15-.1-1.45.17-2.81.29-4.08.35a1.63,1.63,0,0,1,.36-.26c.21-.13.27-.32,0-.46a4.7,4.7,0,0,1,2-.53c.63-.07.74-.45.4-.77A6.87,6.87,0,0,0,91.08,52a5.06,5.06,0,0,0-.73.77l-2.72,0a18.89,18.89,0,0,1-3.09-.39,1.69,1.69,0,0,0,.52,1.19,14.19,14.19,0,0,1,2.6-.27l2.83,0a8.78,8.78,0,0,1-.62.91,7.87,7.87,0,0,0-1.56-.26,8.49,8.49,0,0,1,.09.86c0,.15,0,.3,0,.45q-1.31,0-2.46,0a11.58,11.58,0,0,1-2-.22,4.19,4.19,0,0,0,.69,1.87C84.81,57.15,85,57.18,85.12,57Z"/><path class="cls-1" d="M103.79,57.33c0-.81,0-3.31,0-3.58s-.09-.25-.14,0a11.93,11.93,0,0,1-.81,3.13c-.47.78-1,.09-1.26-.27-.69-1.2-.74-3.3-.63-5.9,0-1,.2-1,.66-1.26.29-.14.31-.33,0-.68a4.09,4.09,0,0,0-1.71-1.09,5.71,5.71,0,0,0-.93.93h-.89c0-1,.06-2.71.09-2.88.09-.43,1.19-.47.64-1a4.72,4.72,0,0,0-2.73-.66,40.39,40.39,0,0,1,.17,4.53,20.38,20.38,0,0,1-2.56-.36,1.7,1.7,0,0,0,.51,1.18,13.53,13.53,0,0,1,2-.24c-.06,1-.13,2-.27,2.85a10,10,0,0,0-2.16-.34c-.41,0-.27.11,0,.28a13,13,0,0,1,1.87,1.26c-.64,2.5-2.08,4.39-5.53,6.23-.6.32-.41.39.14.24a18.26,18.26,0,0,0,2.28-.79c0,.48.06,1.14.07,1.84l-3.38,0a18.77,18.77,0,0,1-3.09-.39,1.7,1.7,0,0,0,.51,1.18,15.24,15.24,0,0,1,2.6-.27l3.37,0c0,1,0,1.89-.07,2.45l-5.84,0a18.89,18.89,0,0,1-3.09-.39,1.75,1.75,0,0,0,.52,1.18,14.76,14.76,0,0,1,2.6-.26l16.46-.15c.36,0,.51-.32.17-.68a6.11,6.11,0,0,0-2.2-1.5,6.26,6.26,0,0,0-1.55,1.69l-4.91,0c0-.81-.07-1.74-.07-2.45l6.35-.05c.35,0,.5-.32.17-.68A6.26,6.26,0,0,0,99,59a6.65,6.65,0,0,0-1.54,1.69l-2.76,0a4.69,4.69,0,0,1,0-.6c.1-.48,1.38-.53.78-1.12a3.63,3.63,0,0,0-1.78-.67,7.08,7.08,0,0,0,3.37-3.79l.06.06c1.23,1.34,2.75-.32,1.07-1.56a5.39,5.39,0,0,0-.62-.38c.2-1.09.3-2.27.41-3.53h1.33c-.19,3.79-.27,7.44,1.63,9.62.88,1,2.66,1.58,3,.48C104.33,58.34,103.79,58.14,103.79,57.33Z"/><path class="cls-1" d="M84.77,47.71a14.19,14.19,0,0,1,2.6-.27l7.12-.07c.29,0,.41-.27.14-.57a5.15,5.15,0,0,0-1.81-1.27,5.25,5.25,0,0,0-1.21,1.34l-1.41,0a4.07,4.07,0,0,1,0-1c.09-.43,1.26-.47.71-1a4.66,4.66,0,0,0-2.73-.67,11.07,11.07,0,0,1,.19,2.74H87.34a18.89,18.89,0,0,1-3.09-.39A1.8,1.8,0,0,0,84.77,47.71Z"/><polygon class="cls-2" points="104.68 65.61 82.64 65.61 84.29 43.74 103.03 43.74 104.68 65.61"/><polygon class="cls-2" points="131.68 65.61 109.64 65.61 111.29 43.74 130.02 43.74 131.68 65.61"/><path class="cls-1" d="M131.4,63.47a16.67,16.67,0,0,1-10.17-11.83l8.56-.07c.38,0,.53-.37.18-.79a6.64,6.64,0,0,0-2.33-1.73,8.31,8.31,0,0,0-1.67,2l-4.79,0c.08-1,.23-3.65.23-4.58,0-.49.42-.72.77-.85s.46-.42.17-.69c-.61-.57-2.63-.82-3.61-.86a28.71,28.71,0,0,1,.08,7l-4.93,0a18.77,18.77,0,0,1-3.09-.39,1.66,1.66,0,0,0,.52,1.18,14.68,14.68,0,0,1,2.59-.26l4.86-.05A16.53,16.53,0,0,1,110,65.13c-.65.37-.44.47.15.26,7.3-2.57,10-7.81,10.79-12.68.14,5,2.48,8.21,5.28,11,1.37,1.36,1.75,1.28,2.21,1a9.38,9.38,0,0,1,2.89-1.07C131.51,63.59,131.59,63.54,131.4,63.47Z"/><path class="cls-3" d="M34.77,11.47C34,8.84,35,4.25,36.32,1.63l-.57-.57L30.89,5.89a1.28,1.28,0,0,1-.21,1.52,1.31,1.31,0,0,1-1.82,0,1.27,1.27,0,0,1,1.53-2L35.26.57,34.68,0C32,1.32,27.42,2.3,24.76,1.54L18.7,8.48l8.39,9.6Z"/><path class="cls-3" d="M2.06,27.54a4,4,0,0,0-1,3.22A5,5,0,0,0,5.33,35,4.1,4.1,0,0,0,8.57,34l9-7.71L9.31,19.23Z"/><path class="cls-3" d="M11.56,1.54C8.9,2.3,4.28,1.32,1.64,0L1.06.57,5.93,5.4a1.27,1.27,0,0,1,1.53,2,1.3,1.3,0,0,1-1.81,0,1.25,1.25,0,0,1-.21-1.52L.57,1.06,0,1.63c1.33,2.62,2.31,7.21,1.55,9.84L27.75,34A4.11,4.11,0,0,0,31,35a5,5,0,0,0,4.22-4.19,4.05,4.05,0,0,0-.95-3.22Z"/><path class="cls-4" d="M4.63,78.41v4.26H5l.63-.74c.08-.1.17-.22.27-.22s.17.07.28.19l.77.74a.41.41,0,0,1,.15.26c0,.19-.15.19-.25.19H4.63V87c.37-.16,2.21-.85,2.61-1.06l0,.13a39.49,39.49,0,0,1-5,3.3c0,.29-.09.62-.35.62s-.24-.14-.3-.28L.77,88a1.89,1.89,0,0,0,.32,0,7.63,7.63,0,0,0,2.37-.59V83.09a10.88,10.88,0,0,0-1.89.16l-.33-.7c.62.06,1.13.09,2.22.12V78.41a11.27,11.27,0,0,0-2.12.15L1,77.87A25,25,0,0,0,3.58,78h1.5l.52-.62c.12-.16.17-.23.27-.23s.17.06.32.19L6.9,78a.37.37,0,0,1,.17.26c0,.17-.17.19-.25.19Zm8.43,8.86.67-.76c.15-.17.2-.22.28-.22s.13,0,.32.19l.85.76a.49.49,0,0,1,.17.26c0,.15-.14.19-.25.19H11.57v3.14h2.36l.65-.81c.1-.12.18-.21.27-.21a.55.55,0,0,1,.3.18l1,.83c.07.06.17.13.17.25s-.14.18-.25.18H6.8a10.72,10.72,0,0,0-2,.17l-.32-.69c1.16.1,2.41.1,2.56.1h3.35V87.69h-1a10.15,10.15,0,0,0-2,.15l-.33-.69c1.14.1,2.32.12,2.56.12h.72V84.4H8.53c0,.38,0,1.09-.74,1.09-.27,0-.48-.12-.48-.5,0-.22.06-1.3.06-1.5,0-.66,0-3.37,0-3.89a9.61,9.61,0,0,0-.21-2.85l1.55.74h4.53l.49-.54A.37.37,0,0,1,14,76.8a.71.71,0,0,1,.32.17l.72.59a.56.56,0,0,1,.18.28c0,.15-.05.19-.53.57,0,1.12,0,2.9,0,4.11,0,.31.07,1.64.07,1.9a.81.81,0,0,1-.82.83c-.5,0-.49-.4-.45-.85H11.57v2.87ZM8.53,77.9v2.8h1.89V77.9Zm0,3.22V84h1.89V81.12Zm5-.42V77.9H11.57v2.8Zm0,3.29V81.12H11.57V84Z"/><path class="cls-4" d="M34.46,90.38H21.73a11.38,11.38,0,0,0-2,.16l-.33-.68C20.75,90,22,90,22,90h4.38V78.77H22.85a12.12,12.12,0,0,0-2,.15l-.33-.69c1.32.12,2.5.12,2.57.12h8.19l.67-.93c.09-.12.17-.22.27-.22s.2.07.32.17l1.15.95a.37.37,0,0,1,.17.26c0,.17-.17.19-.25.19h-6V90h4.31l1-1c.11-.14.18-.22.27-.22s.2.1.3.19l1.1,1c.07.07.17.16.17.26S34.54,90.38,34.46,90.38Z"/><path class="cls-4" d="M53.23,87.05H46.36v3c0,1-.5,1.86-2,2.14-.1-.62-.35-1.07-1.67-1.74V90.3c.39,0,1.39.08,1.66.08.73,0,.9,0,.9-.65V87.05h-4.7a11.19,11.19,0,0,0-2,.15l-.32-.69c1.14.11,2.33.12,2.56.12h4.43a5.45,5.45,0,0,0-.28-2l1.23.37,1.52-1.75H43.5a11,11,0,0,0-2,.16l-.33-.7c1.1.11,2.26.13,2.56.13h4.09l.64-.54c.15-.12.23-.17.32-.17s.16,0,.3.17l1,.95a.37.37,0,0,1,.1.26c0,.22-.27.31-.57.31h-.75a9.51,9.51,0,0,1-1.4.78l-.94.5a.23.23,0,0,1,.15.21c0,.12-.12.27-.3.46v.9h4.48l.75-.86c.17-.19.24-.26.32-.26s.2.09.38.24l1,.85a.44.44,0,0,1,.17.26C53.48,87,53.4,87.05,53.23,87.05Zm-.13-5.71a4.08,4.08,0,0,1-1,.18,8.91,8.91,0,0,0-.77.71,9.52,9.52,0,0,1-.87.63l-.12,0A8.29,8.29,0,0,0,51,80.72H40.73c0,1.18-.51,3.06-1.66,3.06a.64.64,0,0,1-.69-.67c0-.44.19-.61.92-1.39a3.89,3.89,0,0,0,1.12-2.16h.12a2.56,2.56,0,0,1,.15.75h6.79a12.32,12.32,0,0,0,1.34-3.06,2.54,2.54,0,0,0,.08-.92l1.64.83c.13.07.22.14.22.24s-.07.19-.2.25a3.2,3.2,0,0,1-.54.15,18.68,18.68,0,0,1-2.17,2.51H51l.5-.49c.15-.14.23-.19.32-.19s.18.05.3.18l1,.93c.08.09.18.19.18.29A.28.28,0,0,1,53.1,81.34ZM42.58,79.63c-.47,0-.62-.33-.82-1a4,4,0,0,0-1.07-1.86l.05-.11c1.27.3,2.53,1.23,2.53,2.22A.66.66,0,0,1,42.58,79.63Zm3.36-.19c-.48,0-.58-.29-.87-1.09A4.85,4.85,0,0,0,44,76.57l.07-.1c1.47.4,2.54,1.42,2.54,2.19A.7.7,0,0,1,45.94,79.44Z"/><path class="cls-4" d="M63.91,83.57l.59-.69c.1-.1.2-.22.27-.22a.51.51,0,0,1,.31.19l.77.69c.1.09.17.15.17.26s-.13.19-.25.19H59.48a11.36,11.36,0,0,0-2,.15l-.32-.69c1.21.11,2.28.12,2.56.12h1.79a10.9,10.9,0,0,0,1-3.94l1.47.61a.41.41,0,0,1,.23.31c0,.19-.22.33-.58.47-.59.86-1.26,1.81-1.86,2.55Zm-.3-4.65.55-.67c.1-.12.17-.22.25-.22s.21.1.32.2l.72.64c.08.09.17.18.17.28s-.15.19-.25.19H59.93a11.17,11.17,0,0,0-2,.15l-.34-.69c.86.07,1.71.12,2.58.12h.62a7.1,7.1,0,0,0-.3-2.48l1.72.46c.17,0,.33.12.33.28s-.15.24-.58.47c0,.41,0,.82,0,1.27ZM63,85.79l.36-.42c.07-.09.19-.21.27-.21s.22.11.29.16l.63.5a.46.46,0,0,1,.22.31c0,.14-.13.28-.42.49,0,.62,0,1.15,0,2.1,0,.26,0,1.46,0,1.7a.77.77,0,0,1-.78.86c-.32,0-.4-.17-.4-.43a3.4,3.4,0,0,1,0-.45H59.77c0,.19,0,.24,0,.35a.75.75,0,0,1-.84.84c-.36,0-.41-.27-.41-.46,0-.56.08-3.41.08-4a12.28,12.28,0,0,0-.15-2l1.47.76Zm-4-5.74c.5.24,1.94,1,1.94,2.16,0,.64-.39.83-.67.83s-.62-.23-.7-.9a5.73,5.73,0,0,0-.64-2Zm.8,6.15V90h3.48V86.2Zm10-8.55.4-.37c.12-.1.2-.19.29-.19s.18.09.28.16l.85.69a.55.55,0,0,1,.19.33c0,.19-.2.29-.62.52-.39.64-2.07,3.5-2.41,4.09a7.55,7.55,0,0,1,2.51,2.27,5.09,5.09,0,0,1,.82,2.66c0,2-2,2.44-2.78,2.64a2.49,2.49,0,0,0-1.25-1.71l0-.15a10,10,0,0,0,1.42.12c1.16,0,1.36-.61,1.36-1.23A5.65,5.65,0,0,0,68.41,83a32.09,32.09,0,0,0,1.42-5H67.57c0,.74,0,9.37.09,12.36,0,.24,0,.64,0,.83,0,.69-.33.91-.81.91s-.47-.45-.47-.9c0-.15,0-.53,0-.74.09-2.57.09-4.25.09-6.46,0-1.75,0-5.84-.17-7.21l1.39.8Z"/><path class="cls-4" d="M3.24,105.52c0,.36,0,.36.43.36h.9a5,5,0,0,0,1.11-.08c.15,0,.25-.12.33-.46l.12-.53a.3.3,0,0,1,.34,0c0,.32,0,.84,0,1.33s0,1,0,1.27c0,.08-.25.08-.34,0L6,106.9a.64.64,0,0,0-.42-.5,4.5,4.5,0,0,0-1-.07h-.9c-.39,0-.43,0-.43.36v1.82c0,1.38,0,1.57.8,1.64l.45,0c.08,0,0,.29,0,.32l-1.75,0c-.58,0-1,0-1.64,0-.08,0-.11-.24,0-.32l.33,0c.76-.09.79-.26.79-1.64v-4.72c0-1.37,0-1.56-.79-1.65l-.21,0a.26.26,0,0,1,0-.33c.55,0,1,0,1.52,0H5.13a17.69,17.69,0,0,0,1.78,0c0,.6,0,1.23,0,1.73a.24.24,0,0,1-.32,0c-.1-.59-.26-1.08-.92-1.25a5.5,5.5,0,0,0-1.27-.08H3.63c-.39,0-.39,0-.39.53Z"/><path class="cls-4" d="M10.17,107.76c.2-.06.22-.18.22-.38l0-.6c0-.48-.15-1.14-1-1.14-.37,0-.82.18-.85.59,0,.21,0,.37-.13.45a1.44,1.44,0,0,1-.75.24.16.16,0,0,1-.18-.18c0-.68,1.49-1.61,2.45-1.61s1.4.55,1.36,1.53l-.07,2.28c0,.61.09,1.14.6,1.14a.76.76,0,0,0,.33-.08.47.47,0,0,1,.17-.09s.09.08.09.17a1.36,1.36,0,0,1-1.1.58,1.06,1.06,0,0,1-.86-.41c0-.08-.13-.18-.21-.18a2.13,2.13,0,0,0-.51.26,1.93,1.93,0,0,1-.95.33,1.39,1.39,0,0,1-.92-.3,1.24,1.24,0,0,1-.41-.92c0-.51.25-.81,1.09-1.11Zm-.82,2.31a1.5,1.5,0,0,0,.81-.33.89.89,0,0,0,.17-.61l0-.78c0-.14,0-.17-.13-.17a2.42,2.42,0,0,0-.54.13c-.77.27-1.15.46-1.15,1A.78.78,0,0,0,9.35,110.07Z"/><path class="cls-4" d="M17.32,105.35a.72.72,0,0,1,.2.53c0,.23-.13.48-.29.48a.24.24,0,0,1-.18-.09,1.82,1.82,0,0,0-1.32-.7,1.9,1.9,0,0,0-1.81,2.11A2.15,2.15,0,0,0,16,109.92a1.62,1.62,0,0,0,1.46-.78.2.2,0,0,1,.23.18,2.39,2.39,0,0,1-2.19,1.34,2.55,2.55,0,0,1-1.81-.67,2.6,2.6,0,0,1-.76-1.94,2.92,2.92,0,0,1,3.18-2.92A3.39,3.39,0,0,1,17.32,105.35Z"/><path class="cls-4" d="M20,108.55c0,.9.22,1.51,1.22,1.51a1.73,1.73,0,0,0,1.07-.4.9.9,0,0,0,.26-.76v-2.15c0-.85-.09-.87-.48-1l-.17-.07a.16.16,0,0,1,0-.28,5.53,5.53,0,0,0,1.54-.24.14.14,0,0,1,.12.09,11.15,11.15,0,0,0,0,1.14v2.2c0,1,0,1.43.4,1.43a2.58,2.58,0,0,0,.52-.07c.08.07.09.33,0,.39a6.65,6.65,0,0,0-1.72.48.2.2,0,0,1-.16-.09v-.54c0-.12,0-.18-.11-.18a3.46,3.46,0,0,1-1.82.68c-1.16,0-1.59-.58-1.59-1.64v-2.19c0-.82,0-.94-.4-1.11l-.15-.07c-.08-.06-.07-.25,0-.28a5,5,0,0,0,1.41-.24c.08,0,.12,0,.13.09a9,9,0,0,0,0,1.14Z"/><path class="cls-4" d="M26.89,109c0,.94,0,1.07.5,1.14l.31,0c.09.06.07.29,0,.32-.44,0-.82,0-1.28,0s-.87,0-1.26,0c-.09,0-.12-.26,0-.32l.3,0c.49-.07.5-.2.5-1.14v-5.92c0-.78,0-.86-.4-1.09l-.14-.08a.21.21,0,0,1,0-.26,9.6,9.6,0,0,0,1.42-.55.14.14,0,0,1,.14.08c0,.39,0,1,0,1.62Z"/><path class="cls-4" d="M30.5,105.86c-.22,0-.23,0-.23.32v2.45c0,.76.09,1.45,1,1.45a1,1,0,0,0,.35-.06c.12,0,.29-.19.33-.19s.16.15.13.23a1.83,1.83,0,0,1-1.38.6c-1.13,0-1.37-.63-1.37-1.42v-3c0-.35,0-.38-.27-.38h-.37a.21.21,0,0,1,0-.27,2.59,2.59,0,0,0,.84-.41,3.3,3.3,0,0,0,.55-.77c.07,0,.23,0,.28.06v.59c0,.24,0,.25.24.25H32a.42.42,0,0,1,0,.55Z"/><path class="cls-4" d="M32.62,113.17a.49.49,0,0,1,.53-.52h.25a.46.46,0,0,0,.43-.24,7.65,7.65,0,0,0,.76-1.45,1.93,1.93,0,0,0,.13-.56,2.49,2.49,0,0,0-.22-.91l-1-2.8c-.23-.62-.32-.93-.78-1l-.33-.07a.24.24,0,0,1,0-.33c.42,0,.82,0,1.25,0s.72,0,1.14,0c.11,0,.12.27,0,.33l-.33.07c-.18,0-.29.08-.29.17a9.89,9.89,0,0,0,.38,1.23l.42,1.2a6.06,6.06,0,0,0,.39.93,5.54,5.54,0,0,0,.48-1l.45-1a6.08,6.08,0,0,0,.46-1.31c0-.09-.08-.18-.32-.22l-.4-.07a.22.22,0,0,1,0-.33c.42,0,.82,0,1.16,0s.63,0,1,0a.23.23,0,0,1,0,.33l-.23,0c-.43.08-.67.46-1.11,1.39l-.74,1.51c-.44.87-1.51,3.15-2.16,4.58a.87.87,0,0,1-.84.62A.53.53,0,0,1,32.62,113.17Z"/><path class="cls-4" d="M47.55,107.84a2.68,2.68,0,0,1-2.78,2.82,2.59,2.59,0,0,1-2.69-2.7,2.76,2.76,0,0,1,2.8-2.83A2.62,2.62,0,0,1,47.55,107.84Zm-2.83-2.32c-.87,0-1.51.83-1.51,2.27,0,1.19.54,2.48,1.69,2.48s1.52-1.21,1.52-2.22S46,105.52,44.72,105.52Z"/><path class="cls-4" d="M50.59,105.86c-.23,0-.23,0-.23.38V109c0,.94,0,1.1.5,1.14l.48,0c.09.06.06.29,0,.32l-1.43,0c-.48,0-.87,0-1.27,0-.09,0-.11-.26,0-.32l.3,0c.49-.07.5-.2.5-1.14v-2.77c0-.35,0-.38-.26-.38h-.46a.18.18,0,0,1,0-.25l.56-.27a.29.29,0,0,0,.2-.26,5.79,5.79,0,0,1,.41-2.31,2.57,2.57,0,0,1,2.36-1.66c.7,0,1.29.31,1.29.78a.5.5,0,0,1-.5.47.37.37,0,0,1-.31-.15,1.47,1.47,0,0,0-1-.58,1,1,0,0,0-.94.72,7.13,7.13,0,0,0-.29,2.22V105c0,.35,0,.36.23.36h1.5a.4.4,0,0,1-.1.55Z"/><path class="cls-4" d="M58.45,110.68a4.19,4.19,0,0,1-2.05-.48,6.08,6.08,0,0,1-.36-1.83c.07-.1.27-.12.32,0a2.4,2.4,0,0,0,2.26,2,1.49,1.49,0,0,0,1.65-1.51,2,2,0,0,0-1.08-1.83l-1.25-.81a2.8,2.8,0,0,1-1.42-2.26c0-1.24,1-2.25,2.68-2.25a5.13,5.13,0,0,1,1.22.17,2,2,0,0,0,.46.08,5.63,5.63,0,0,1,.24,1.6.27.27,0,0,1-.33,0A1.72,1.72,0,0,0,59,102a1.37,1.37,0,0,0-1.56,1.46,2.05,2.05,0,0,0,1.12,1.61l1,.66a2.94,2.94,0,0,1,1.64,2.51C61.25,109.7,60.16,110.68,58.45,110.68Z"/><path class="cls-4" d="M66.9,105.35a.76.76,0,0,1,.19.53c0,.23-.13.48-.29.48a.24.24,0,0,1-.18-.09,1.82,1.82,0,0,0-1.32-.7,1.9,1.9,0,0,0-1.81,2.11,2.15,2.15,0,0,0,2.12,2.24,1.62,1.62,0,0,0,1.46-.78.2.2,0,0,1,.23.18,2.39,2.39,0,0,1-2.19,1.34A2.55,2.55,0,0,1,63.3,110a2.6,2.6,0,0,1-.76-1.94,2.92,2.92,0,0,1,3.18-2.92A3.49,3.49,0,0,1,66.9,105.35Z"/><path class="cls-4" d="M68.75,106.72c0-.52,0-.58-.36-.82l-.11-.08a.16.16,0,0,1,0-.23,10.3,10.3,0,0,0,1.35-.64c.07,0,.12,0,.14.07,0,.46-.06,1.09-.06,1.63V109c0,.94,0,1.07.5,1.14l.28,0c.09.06.06.29,0,.32-.39,0-.77,0-1.23,0s-.87,0-1.24,0c-.09,0-.12-.26,0-.32l.28,0c.49-.07.5-.2.5-1.14ZM69.84,103a.69.69,0,0,1-1.37,0,.68.68,0,0,1,.71-.71A.65.65,0,0,1,69.84,103Z"/><path class="cls-4" d="M72.68,107.12c-.34,0-.35,0-.35.35a2.21,2.21,0,0,0,2.18,2.45,1.43,1.43,0,0,0,1.21-.64.18.18,0,0,1,.24.16,2.31,2.31,0,0,1-2.07,1.22,2.38,2.38,0,0,1-1.91-.87,3,3,0,0,1,2.1-4.66,1.71,1.71,0,0,1,1.86,1.56.76.76,0,0,1,0,.34c0,.08-.22.09-.78.09Zm.82-.39c1,0,1.26,0,1.37-.13s.07-.08.07-.25c0-.37-.25-.83-1-.83a1.55,1.55,0,0,0-1.46,1.14s0,.07.09.07Z"/><path class="cls-4" d="M77.6,106.72c0-.52,0-.58-.35-.82l-.12-.08a.18.18,0,0,1,0-.23,8.45,8.45,0,0,0,1.32-.64.14.14,0,0,1,.14.09,5.7,5.7,0,0,0,0,.61.15.15,0,0,0,.15.15,3.61,3.61,0,0,1,1.84-.67,1.46,1.46,0,0,1,1.54,1.62V109c0,.94,0,1.07.5,1.14l.29,0c.09.06.06.29,0,.32-.39,0-.77,0-1.23,0s-.87,0-1.23,0a.21.21,0,0,1,0-.32l.25,0c.48-.08.5-.2.5-1.14v-2a1.14,1.14,0,0,0-1.24-1.3,1.45,1.45,0,0,0-1.12.46,1.08,1.08,0,0,0-.2.78v2c0,.94,0,1.06.5,1.14l.24,0c.09.06.07.29,0,.32-.35,0-.73,0-1.19,0s-.87,0-1.24,0a.21.21,0,0,1,0-.32l.27,0c.49-.07.5-.2.5-1.14Z"/><path class="cls-4" d="M88.18,105.35a.76.76,0,0,1,.19.53c0,.23-.13.48-.29.48a.24.24,0,0,1-.18-.09,1.82,1.82,0,0,0-1.32-.7,1.9,1.9,0,0,0-1.81,2.11,2.15,2.15,0,0,0,2.12,2.24,1.62,1.62,0,0,0,1.46-.78.2.2,0,0,1,.23.18,2.39,2.39,0,0,1-2.19,1.34,2.53,2.53,0,0,1-1.8-.67,2.57,2.57,0,0,1-.77-1.94A2.92,2.92,0,0,1,87,105.13,3.49,3.49,0,0,1,88.18,105.35Z"/><path class="cls-4" d="M90.45,107.12c-.34,0-.35,0-.35.35a2.21,2.21,0,0,0,2.18,2.45,1.43,1.43,0,0,0,1.21-.64.18.18,0,0,1,.24.16,2.32,2.32,0,0,1-2.07,1.22,2.37,2.37,0,0,1-1.91-.87,3,3,0,0,1,2.1-4.66,1.71,1.71,0,0,1,1.86,1.56.76.76,0,0,1,0,.34c0,.08-.22.09-.78.09Zm.82-.39c1,0,1.26,0,1.36-.13s.08-.08.08-.25c0-.37-.25-.83-1-.83a1.54,1.54,0,0,0-1.46,1.14s0,.07.09.07Z"/><path class="cls-4" d="M100.62,107.76c.19-.06.22-.18.22-.38v-.6c0-.48-.14-1.14-1-1.14-.36,0-.81.18-.84.59,0,.21,0,.37-.13.45a1.47,1.47,0,0,1-.75.24.16.16,0,0,1-.18-.18c0-.68,1.48-1.61,2.44-1.61s1.41.55,1.37,1.53l-.08,2.28c0,.61.09,1.14.61,1.14a.76.76,0,0,0,.33-.08.47.47,0,0,1,.17-.09s.09.08.09.17a1.37,1.37,0,0,1-1.11.58,1,1,0,0,1-.85-.41c0-.08-.13-.18-.21-.18a2.13,2.13,0,0,0-.51.26,1.93,1.93,0,0,1-.95.33,1.39,1.39,0,0,1-.92-.3,1.24,1.24,0,0,1-.41-.92c0-.51.25-.81,1.09-1.11Zm-.82,2.31a1.46,1.46,0,0,0,.8-.33c.16-.16.16-.34.17-.61l0-.78c0-.14,0-.17-.13-.17a2.42,2.42,0,0,0-.54.13c-.78.27-1.16.46-1.16,1A.79.79,0,0,0,99.8,110.07Z"/><path class="cls-4" d="M104.23,106.72c0-.52,0-.58-.35-.82l-.12-.08a.18.18,0,0,1,0-.23,7.66,7.66,0,0,0,1.32-.64.14.14,0,0,1,.14.09c0,.3,0,.5,0,.61a.14.14,0,0,0,.14.15,3.61,3.61,0,0,1,1.84-.67,1.46,1.46,0,0,1,1.54,1.62V109c0,.94,0,1.07.5,1.14l.29,0c.09.06.07.29,0,.32-.4,0-.78,0-1.24,0s-.87,0-1.22,0c-.1,0-.12-.26,0-.32l.25,0c.49-.08.5-.2.5-1.14v-2a1.14,1.14,0,0,0-1.24-1.3,1.45,1.45,0,0,0-1.12.46,1.08,1.08,0,0,0-.19.78v2c0,.94,0,1.06.5,1.14l.23,0a.21.21,0,0,1,0,.32c-.36,0-.74,0-1.2,0s-.87,0-1.24,0c-.09,0-.11-.26,0-.32l.27,0c.49-.07.5-.2.5-1.14Z"/><path class="cls-4" d="M115.56,108.56c0,1,0,1.52.38,1.52a2.07,2.07,0,0,0,.57-.13c.09,0,.1.36,0,.42a10.21,10.21,0,0,0-1.73.42c-.08,0-.15,0-.15-.11v-.22a1.85,1.85,0,0,0,0-.4h-.06a2.75,2.75,0,0,1-1.65.6,2.42,2.42,0,0,1-2.44-2.52,3,3,0,0,1,3.19-3,2.82,2.82,0,0,1,.88.12c.06,0,.08-.08.08-.19v-2c0-.78,0-.86-.41-1.09l-.13-.08a.19.19,0,0,1,0-.26,10.53,10.53,0,0,0,1.42-.55.14.14,0,0,1,.13.08c0,.39,0,1,0,1.62Zm-1-2a.76.76,0,0,0-.15-.51,1.36,1.36,0,0,0-1.1-.55,1.93,1.93,0,0,0-1.82,2.17,2.08,2.08,0,0,0,2,2.32,1.59,1.59,0,0,0,1-.37.76.76,0,0,0,.1-.48Z"/><path class="cls-4" d="M124.48,108.51c0,1.38,0,1.57.78,1.64l.43,0c.07,0,0,.29,0,.32l-1.72,0-1.83,0a.21.21,0,0,1,0-.32l.47,0c.75-.07.82-.26.82-1.64v-5.86c0-.4,0-.42-.4-.42h-.72a2.71,2.71,0,0,0-1.62.33,2.41,2.41,0,0,0-.59.91.26.26,0,0,1-.34-.1,13.33,13.33,0,0,0,.5-2s.21,0,.25,0c.08.42.51.41,1.12.41h5.32c.71,0,.83,0,1-.37.06,0,.21,0,.23,0a8.08,8.08,0,0,0-.19,2,.24.24,0,0,1-.34,0,1.74,1.74,0,0,0-.33-1,2.69,2.69,0,0,0-1.53-.33h-.93c-.4,0-.38,0-.38.45Z"/><path class="cls-4" d="M128.58,107.12c-.34,0-.36,0-.36.35a2.22,2.22,0,0,0,2.19,2.45,1.43,1.43,0,0,0,1.21-.64.17.17,0,0,1,.23.16,2.3,2.3,0,0,1-2.06,1.22,2.35,2.35,0,0,1-1.91-.87,2.78,2.78,0,0,1-.55-1.7,2.75,2.75,0,0,1,2.64-3,1.72,1.72,0,0,1,1.87,1.56,1,1,0,0,1-.05.34c0,.08-.23.09-.78.09Zm.81-.39c1,0,1.27,0,1.37-.13s.08-.08.08-.25c0-.37-.25-.83-1-.83a1.54,1.54,0,0,0-1.46,1.14s0,.07.09.07Z"/><path class="cls-4" d="M137,105.35a.76.76,0,0,1,.19.53c0,.23-.13.48-.29.48a.24.24,0,0,1-.18-.09,1.82,1.82,0,0,0-1.32-.7,1.9,1.9,0,0,0-1.81,2.11,2.15,2.15,0,0,0,2.12,2.24,1.62,1.62,0,0,0,1.46-.78.2.2,0,0,1,.23.18,2.39,2.39,0,0,1-2.19,1.34,2.57,2.57,0,0,1-1.81-.67,2.6,2.6,0,0,1-.76-1.94,2.93,2.93,0,0,1,3.19-2.92A3.48,3.48,0,0,1,137,105.35Z"/><path class="cls-4" d="M138.76,103.09c0-.78,0-.86-.41-1.09l-.13-.08a.19.19,0,0,1,0-.26,9.6,9.6,0,0,0,1.42-.55.13.13,0,0,1,.13.08c0,.39,0,1,0,1.62v2.75a.44.44,0,0,0,.05.25,3,3,0,0,1,1.78-.68,1.53,1.53,0,0,1,1.7,1.69V109c0,.94,0,1.09.5,1.14l.35,0c.09.06.07.29,0,.32-.48,0-.86,0-1.32,0s-.87,0-1.22,0c-.1,0-.12-.26,0-.32l.26,0c.49-.08.5-.2.5-1.14v-1.88c0-.83-.4-1.4-1.25-1.4a1.57,1.57,0,0,0-1,.36c-.24.19-.28.26-.28.72V109c0,.94,0,1.07.5,1.14l.28,0c.09,0,.06.29,0,.32-.39,0-.77,0-1.23,0s-.87,0-1.29,0c-.1,0-.12-.26,0-.32l.33,0c.49-.05.5-.2.5-1.14Z"/><path class="cls-4" d="M145.8,106.72c0-.52,0-.58-.36-.82l-.12-.08a.18.18,0,0,1,0-.23,7.66,7.66,0,0,0,1.32-.64.16.16,0,0,1,.15.09,5.7,5.7,0,0,0,0,.61.14.14,0,0,0,.14.15,3.65,3.65,0,0,1,1.84-.67,1.45,1.45,0,0,1,1.54,1.62V109c0,.94,0,1.07.5,1.14l.29,0c.09.06.07.29,0,.32-.4,0-.78,0-1.24,0s-.87,0-1.22,0c-.1,0-.12-.26,0-.32l.25,0c.49-.08.5-.2.5-1.14v-2a1.14,1.14,0,0,0-1.24-1.3,1.41,1.41,0,0,0-1.11.46,1.08,1.08,0,0,0-.2.78v2c0,.94,0,1.06.5,1.14l.23,0a.21.21,0,0,1,0,.32c-.36,0-.74,0-1.2,0s-.87,0-1.23,0c-.1,0-.12-.26,0-.32l.28,0c.48-.07.5-.2.5-1.14Z"/><path class="cls-4" d="M157.47,107.84a2.68,2.68,0,0,1-2.77,2.82A2.6,2.6,0,0,1,152,108a2.76,2.76,0,0,1,2.8-2.83A2.62,2.62,0,0,1,157.47,107.84Zm-2.82-2.32c-.87,0-1.52.83-1.52,2.27,0,1.19.54,2.48,1.7,2.48s1.51-1.21,1.51-2.22S155.9,105.52,154.65,105.52Z"/><path class="cls-4" d="M160.2,109c0,.94,0,1.07.5,1.14l.31,0c.09.06.07.29,0,.32-.44,0-.82,0-1.28,0s-.87,0-1.26,0c-.09,0-.12-.26,0-.32l.3,0c.49-.07.5-.2.5-1.14v-5.92c0-.78,0-.86-.4-1.09l-.14-.08a.21.21,0,0,1,0-.26,9.6,9.6,0,0,0,1.42-.55.14.14,0,0,1,.14.08c0,.39,0,1,0,1.62Z"/><path class="cls-4" d="M167.38,107.84a2.68,2.68,0,0,1-2.78,2.82,2.59,2.59,0,0,1-2.69-2.7,2.76,2.76,0,0,1,2.8-2.83A2.62,2.62,0,0,1,167.38,107.84Zm-2.83-2.32c-.87,0-1.51.83-1.51,2.27,0,1.19.54,2.48,1.69,2.48s1.52-1.21,1.52-2.22S165.8,105.52,164.55,105.52Z"/><path class="cls-4" d="M173.84,105.6c.14.07.11.51-.08.54h-.95a4.93,4.93,0,0,1,0,.67,2,2,0,0,1-2.21,2.08c-.24,0-.42,0-.58,0s-.58.34-.58.72.3.55.92.55c.45,0,1,0,1.57,0s1.84.13,1.84,1.44-1.57,2.48-3.28,2.48-2.18-.86-2.18-1.52a.72.72,0,0,1,.14-.48c.23-.24.59-.58.9-.88.12-.12.22-.24.1-.32a1.21,1.21,0,0,1-1-1c0-.07.06-.12.2-.22a4.69,4.69,0,0,0,.7-.61.55.55,0,0,0,.13-.25,1.76,1.76,0,0,1-1-1.58,2.05,2.05,0,0,1,2.15-2,3.29,3.29,0,0,1,1.26.26,1.6,1.6,0,0,0,.8.21Zm-2.75,5.29A2.85,2.85,0,0,0,170,111a1.34,1.34,0,0,0-.64,1.1c0,.71.57,1.3,1.77,1.3S173,112.78,173,112s-.55-1.14-1.5-1.14Zm.81-3.74c0-.89-.37-1.64-1.17-1.64-.63,0-1.1.58-1.1,1.47s.56,1.53,1.19,1.53S171.9,108,171.9,107.15Z"/><path class="cls-4" d="M174.28,113.17a.49.49,0,0,1,.53-.52h.25a.46.46,0,0,0,.43-.24,8.51,8.51,0,0,0,.77-1.45,1.93,1.93,0,0,0,.13-.56,2.56,2.56,0,0,0-.23-.91l-1-2.8c-.23-.62-.32-.93-.78-1l-.33-.07a.24.24,0,0,1,0-.33c.42,0,.82,0,1.25,0s.73,0,1.15,0c.1,0,.11.27,0,.33l-.33.07c-.18,0-.29.08-.29.17a10.05,10.05,0,0,0,.39,1.23l.42,1.2a7.49,7.49,0,0,0,.38.93,5.54,5.54,0,0,0,.48-1l.45-1a6.08,6.08,0,0,0,.46-1.31c0-.09-.08-.18-.31-.22l-.41-.07c-.09-.06-.08-.29,0-.33.43,0,.82,0,1.16,0s.63,0,1,0a.22.22,0,0,1,0,.33l-.22,0c-.44.08-.68.46-1.12,1.39l-.74,1.51c-.43.87-1.51,3.15-2.16,4.58a.87.87,0,0,1-.84.62A.53.53,0,0,1,174.28,113.17Z"/></svg>